G04 #@! TF.GenerationSoftware,KiCad,Pcbnew,7.0.1*
G04 #@! TF.CreationDate,2023-03-20T20:29:13+09:00*
G04 #@! TF.ProjectId,EB-STM32U575CIU6Q,45422d53-544d-4333-9255-353735434955,V1.0*
G04 #@! TF.SameCoordinates,Original*
G04 #@! TF.FileFunction,Copper,L2,Bot*
G04 #@! TF.FilePolarity,Positive*
%FSLAX46Y46*%
G04 Gerber Fmt 4.6, Leading zero omitted, Abs format (unit mm)*
G04 Created by KiCad (PCBNEW 7.0.1) date 2023-03-20 20:29:13*
%MOMM*%
%LPD*%
G01*
G04 APERTURE LIST*
G04 #@! TA.AperFunction,ComponentPad*
%ADD10O,1.000000X1.800000*%
G04 #@! TD*
G04 #@! TA.AperFunction,ComponentPad*
%ADD11O,1.000000X2.100000*%
G04 #@! TD*
G04 #@! TA.AperFunction,ComponentPad*
%ADD12R,1.600000X1.600000*%
G04 #@! TD*
G04 #@! TA.AperFunction,ComponentPad*
%ADD13C,1.600000*%
G04 #@! TD*
G04 #@! TA.AperFunction,ViaPad*
%ADD14C,0.609600*%
G04 #@! TD*
G04 #@! TA.AperFunction,Conductor*
%ADD15C,0.304800*%
G04 #@! TD*
G04 #@! TA.AperFunction,Conductor*
%ADD16C,0.203200*%
G04 #@! TD*
G04 APERTURE END LIST*
D10*
X4320000Y15400000D03*
D11*
X-4320000Y11220000D03*
D10*
X-4320000Y15400000D03*
D11*
X4320000Y11220000D03*
D12*
X8890000Y0D03*
D13*
X8890000Y-2540000D03*
X8890000Y-5080000D03*
X8890000Y-7620000D03*
X8890000Y-10160000D03*
X8890000Y-12700000D03*
X8890000Y-15240000D03*
X8890000Y-17780000D03*
X8890000Y-20320000D03*
X8890000Y-22860000D03*
X8890000Y-25400000D03*
X8890000Y-27940000D03*
X8890000Y-30480000D03*
X8890000Y-33020000D03*
X8890000Y-35560000D03*
X8890000Y-38100000D03*
X8890000Y-40640000D03*
D12*
X-8890000Y0D03*
D13*
X-8890000Y-2540000D03*
X-8890000Y-5080000D03*
X-8890000Y-7620000D03*
X-8890000Y-10160000D03*
X-8890000Y-12700000D03*
X-8890000Y-15240000D03*
X-8890000Y-17780000D03*
X-8890000Y-20320000D03*
X-8890000Y-22860000D03*
X-8890000Y-25400000D03*
X-8890000Y-27940000D03*
X-8890000Y-30480000D03*
X-8890000Y-33020000D03*
X-8890000Y-35560000D03*
X-8890000Y-38100000D03*
X-8890000Y-40640000D03*
D14*
X6150000Y9300000D03*
X-3550000Y12650000D03*
X900000Y-13000000D03*
X1000000Y8500000D03*
X-5000000Y-10500000D03*
X8000000Y16000000D03*
X-6500000Y4000000D03*
X5900000Y-12800000D03*
X3600000Y-24900000D03*
X-6500000Y-20900000D03*
X-2900000Y-15300000D03*
X0Y0D03*
X4500000Y-18600000D03*
X4500000Y-31000000D03*
X-5000000Y-40000000D03*
X6500000Y4000000D03*
X3200000Y9300000D03*
X500000Y-5000000D03*
X-1500000Y-10500000D03*
X-3200000Y9300000D03*
X-8000000Y16000000D03*
X-1500000Y-5000000D03*
X5000000Y-40000000D03*
X-6500000Y-19800000D03*
X1550000Y-10350000D03*
X4500000Y-26000000D03*
X4738775Y-17461225D03*
X-4600000Y-17400000D03*
X1350000Y-26000000D03*
X2700000Y-26450000D03*
X-1795700Y-16050000D03*
X-2400000Y9300000D03*
X2400000Y9300000D03*
X2550000Y0D03*
X5738775Y-18461225D03*
X4113775Y-16865100D03*
X1300000Y0D03*
X-2550000Y0D03*
X-5400000Y-21250000D03*
X-2200000Y-35800000D03*
X5239778Y-20960222D03*
X-3300000Y-7300000D03*
X5200000Y-20100000D03*
X-3300000Y-6500000D03*
D15*
X6150000Y11078159D02*
X4578159Y12650000D01*
X4578159Y12650000D02*
X-3550000Y12650000D01*
X6150000Y9300000D02*
X6150000Y11078159D01*
D16*
X-1700000Y-15300000D02*
X-900000Y-16100000D01*
X-900000Y-20400000D02*
X3600000Y-24900000D01*
X-2900000Y-15300000D02*
X-2900000Y-21500000D01*
X-2900000Y-21500000D02*
X-1500000Y-22900000D01*
X-2900000Y-15300000D02*
X-1700000Y-15300000D01*
X-1500000Y-22900000D02*
X-1500000Y-23400000D01*
X-1500000Y-23400000D02*
X-1050000Y-23850000D01*
X-900000Y-16100000D02*
X-900000Y-20400000D01*
X-6000000Y-19800000D02*
X-4600000Y-18400000D01*
X2400000Y-27050000D02*
X1350000Y-26000000D01*
X5179975Y-18692688D02*
X5800000Y-19312713D01*
X5798578Y-19601422D02*
X5798578Y-24701422D01*
X4500000Y-26000000D02*
X3450000Y-27050000D01*
X4738775Y-17461225D02*
X5179975Y-17902425D01*
X5800000Y-19312713D02*
X5800000Y-19600000D01*
X5798578Y-24701422D02*
X4500000Y-26000000D01*
X3919637Y-17461225D02*
X1550000Y-15091588D01*
X5800000Y-19600000D02*
X5798578Y-19601422D01*
X5179975Y-17902425D02*
X5179975Y-18692688D01*
X3450000Y-27050000D02*
X2400000Y-27050000D01*
X-6500000Y-19800000D02*
X-6000000Y-19800000D01*
X-4600000Y-18400000D02*
X-4600000Y-17400000D01*
X1550000Y-15091588D02*
X1550000Y-10350000D01*
X4738775Y-17461225D02*
X3919637Y-17461225D01*
X-1795700Y-21954300D02*
X-1795700Y-16050000D01*
X2700000Y-26450000D02*
X-1795700Y-21954300D01*
D15*
X-2400000Y9300000D02*
X2400000Y9300000D01*
D16*
X5738775Y-17338775D02*
X2550000Y-14150000D01*
X2550000Y-14150000D02*
X2550000Y0D01*
X5738775Y-18461225D02*
X5738775Y-17338775D01*
X2194400Y-894400D02*
X2194400Y-14945725D01*
X1300000Y0D02*
X2194400Y-894400D01*
X2194400Y-14945725D02*
X4113775Y-16865100D01*
X-4250000Y-21250000D02*
X-5400000Y-21250000D01*
X-4000000Y-1450000D02*
X-4000000Y-21000000D01*
X-4150000Y-21250000D02*
X-5400000Y-21250000D01*
X-2200000Y-23200000D02*
X-4150000Y-21250000D01*
X-2200000Y-35800000D02*
X-2200000Y-23200000D01*
X-2550000Y0D02*
X-4000000Y-1450000D01*
X-4000000Y-21000000D02*
X-4250000Y-21250000D01*
X-3300000Y-7300000D02*
X-3300000Y-13102894D01*
X4557328Y-20960222D02*
X5239778Y-20960222D01*
X-3300000Y-13102894D02*
X4557328Y-20960222D01*
X4200000Y-20100000D02*
X5200000Y-20100000D01*
X-2741200Y-13158800D02*
X4200000Y-20100000D01*
X-3300000Y-6500000D02*
X-2741200Y-7058800D01*
X-2741200Y-7058800D02*
X-2741200Y-13158800D01*
G04 #@! TA.AperFunction,Conductor*
G36*
X-920226Y-16351530D02*
G01*
X-873502Y-16380888D01*
X2897225Y-20151617D01*
X4097927Y-21352319D01*
X4108621Y-21364513D01*
X4127904Y-21389642D01*
X4127906Y-21389644D01*
X4153031Y-21408923D01*
X4153034Y-21408926D01*
X4159480Y-21413872D01*
X4159482Y-21413874D01*
X4253681Y-21486155D01*
X4400148Y-21546824D01*
X4539041Y-21565109D01*
X4557327Y-21567517D01*
X4557327Y-21567516D01*
X4557328Y-21567517D01*
X4588729Y-21563382D01*
X4604914Y-21562322D01*
X4651649Y-21562322D01*
X4699102Y-21571761D01*
X4722173Y-21587177D01*
X4722674Y-21586381D01*
X4734502Y-21593813D01*
X4734504Y-21593815D01*
X4888160Y-21690364D01*
X5059448Y-21750300D01*
X5086362Y-21753332D01*
X5142329Y-21774098D01*
X5182108Y-21818610D01*
X5196478Y-21876552D01*
X5196478Y-24400662D01*
X5187039Y-24448115D01*
X5160159Y-24488343D01*
X4484359Y-25164141D01*
X4450480Y-25188180D01*
X4410562Y-25199680D01*
X4319672Y-25209921D01*
X4148382Y-25269858D01*
X3994724Y-25366408D01*
X3866408Y-25494724D01*
X3769858Y-25648382D01*
X3709921Y-25819672D01*
X3699680Y-25910562D01*
X3688180Y-25950480D01*
X3664141Y-25984359D01*
X3586386Y-26062114D01*
X3539660Y-26091475D01*
X3484821Y-26097653D01*
X3432733Y-26079427D01*
X3393714Y-26040408D01*
X3333593Y-25944726D01*
X3205274Y-25816407D01*
X3051618Y-25719858D01*
X2880330Y-25659922D01*
X2880329Y-25659921D01*
X2880327Y-25659921D01*
X2789436Y-25649680D01*
X2749518Y-25638180D01*
X2715639Y-25614141D01*
X-1157281Y-21741221D01*
X-1184161Y-21700993D01*
X-1193600Y-21653540D01*
X-1193600Y-16638129D01*
X-1184161Y-16590676D01*
X-1168744Y-16567604D01*
X-1169541Y-16567104D01*
X-1162108Y-16555275D01*
X-1162107Y-16555274D01*
X-1066173Y-16402597D01*
X-1027153Y-16363577D01*
X-975064Y-16345351D01*
X-920226Y-16351530D01*
G37*
G04 #@! TD.AperFunction*
G04 #@! TA.AperFunction,Conductor*
G36*
X-3235582Y-14037923D02*
G01*
X-3186218Y-14068173D01*
X-2126588Y-15127802D01*
X-2097230Y-15174526D01*
X-2091051Y-15229364D01*
X-2109277Y-15281453D01*
X-2148297Y-15320473D01*
X-2300974Y-15416407D01*
X-2429293Y-15544726D01*
X-2525842Y-15698382D01*
X-2585778Y-15869670D01*
X-2606096Y-16050000D01*
X-2585778Y-16230330D01*
X-2525842Y-16401618D01*
X-2429293Y-16555274D01*
X-2429290Y-16555276D01*
X-2421859Y-16567104D01*
X-2422655Y-16567604D01*
X-2407239Y-16590676D01*
X-2397800Y-16638129D01*
X-2397800Y-21851339D01*
X-2411315Y-21907634D01*
X-2448915Y-21951657D01*
X-2502402Y-21973812D01*
X-2560118Y-21969270D01*
X-2609481Y-21939020D01*
X-3367589Y-21180911D01*
X-3397327Y-21133090D01*
X-3402848Y-21077047D01*
X-3396840Y-21031404D01*
X-3396839Y-21031393D01*
X-3392705Y-20999999D01*
X-3396839Y-20968605D01*
X-3397900Y-20952420D01*
X-3397900Y-14155854D01*
X-3384385Y-14099559D01*
X-3346785Y-14055536D01*
X-3293298Y-14033381D01*
X-3235582Y-14037923D01*
G37*
G04 #@! TD.AperFunction*
G04 #@! TA.AperFunction,Conductor*
G36*
X9006060Y17694103D02*
G01*
X9022366Y17692497D01*
X9123377Y17682548D01*
X9147217Y17677806D01*
X9200689Y17661585D01*
X9254165Y17645363D01*
X9276620Y17636062D01*
X9375183Y17583379D01*
X9395395Y17569874D01*
X9481786Y17498974D01*
X9498974Y17481786D01*
X9569874Y17395395D01*
X9583379Y17375183D01*
X9636062Y17276620D01*
X9645365Y17254162D01*
X9677806Y17147217D01*
X9682548Y17123377D01*
X9694103Y17006063D01*
X9694700Y16993908D01*
X9694700Y1424500D01*
X9678087Y1362500D01*
X9632700Y1317113D01*
X9570700Y1300500D01*
X8042154Y1300499D01*
X8042128Y1300499D01*
X7982517Y1294091D01*
X7847669Y1243796D01*
X7732454Y1157546D01*
X7646204Y1042331D01*
X7595909Y907483D01*
X7589500Y847869D01*
X7589500Y-847869D01*
X7595909Y-907483D01*
X7646204Y-1042331D01*
X7732454Y-1157546D01*
X7847669Y-1243796D01*
X7982517Y-1294091D01*
X8017594Y-1297862D01*
X8073513Y-1318239D01*
X8113497Y-1362327D01*
X8128332Y-1419968D01*
X8114600Y-1477881D01*
X8075464Y-1522724D01*
X8050860Y-1539952D01*
X7889953Y-1700859D01*
X7759432Y-1887264D01*
X7663261Y-2093502D01*
X7604364Y-2313310D01*
X7584531Y-2539999D01*
X7604364Y-2766689D01*
X7663261Y-2986497D01*
X7759432Y-3192735D01*
X7889953Y-3379140D01*
X8050859Y-3540046D01*
X8237264Y-3670567D01*
X8237265Y-3670567D01*
X8237266Y-3670568D01*
X8295865Y-3697893D01*
X8348040Y-3743650D01*
X8367460Y-3810275D01*
X8348041Y-3876900D01*
X8295865Y-3922657D01*
X8237517Y-3949865D01*
X8164526Y-4000973D01*
X9155871Y-4992318D01*
X9187965Y-5047905D01*
X9187965Y-5112093D01*
X9155871Y-5167680D01*
X8164526Y-6159025D01*
X8164526Y-6159026D01*
X8237515Y-6210133D01*
X8295865Y-6237342D01*
X8348040Y-6283099D01*
X8367460Y-6349723D01*
X8348041Y-6416348D01*
X8295866Y-6462105D01*
X8237267Y-6489430D01*
X8050859Y-6619953D01*
X7889953Y-6780859D01*
X7759432Y-6967264D01*
X7663261Y-7173502D01*
X7604364Y-7393310D01*
X7584531Y-7620000D01*
X7604364Y-7846689D01*
X7663261Y-8066497D01*
X7759432Y-8272735D01*
X7889953Y-8459140D01*
X8050859Y-8620046D01*
X8237263Y-8750566D01*
X8237266Y-8750568D01*
X8295275Y-8777618D01*
X8347450Y-8823375D01*
X8366869Y-8890000D01*
X8347450Y-8956625D01*
X8295275Y-9002382D01*
X8237263Y-9029433D01*
X8050859Y-9159953D01*
X7889953Y-9320859D01*
X7759432Y-9507264D01*
X7663261Y-9713502D01*
X7604364Y-9933310D01*
X7584531Y-10160000D01*
X7604364Y-10386689D01*
X7663261Y-10606497D01*
X7759432Y-10812735D01*
X7889953Y-10999140D01*
X8050859Y-11160046D01*
X8237266Y-11290568D01*
X8295273Y-11317617D01*
X8347449Y-11363373D01*
X8366869Y-11429997D01*
X8347451Y-11496622D01*
X8295276Y-11542380D01*
X8237266Y-11569431D01*
X8050859Y-11699953D01*
X7889953Y-11860859D01*
X7759432Y-12047264D01*
X7663261Y-12253502D01*
X7604364Y-12473310D01*
X7584531Y-12700000D01*
X7604364Y-12926689D01*
X7663261Y-13146497D01*
X7759432Y-13352735D01*
X7889953Y-13539140D01*
X8050859Y-13700046D01*
X8237265Y-13830567D01*
X8237266Y-13830568D01*
X8295273Y-13857617D01*
X8347449Y-13903373D01*
X8366869Y-13969997D01*
X8347451Y-14036622D01*
X8295276Y-14082380D01*
X8237266Y-14109431D01*
X8050859Y-14239953D01*
X7889953Y-14400859D01*
X7759432Y-14587264D01*
X7663261Y-14793502D01*
X7604364Y-15013310D01*
X7584531Y-15239999D01*
X7604364Y-15466689D01*
X7663261Y-15686497D01*
X7759432Y-15892735D01*
X7889953Y-16079140D01*
X8050859Y-16240046D01*
X8201252Y-16345351D01*
X8237266Y-16370568D01*
X8295273Y-16397617D01*
X8347449Y-16443373D01*
X8366869Y-16509997D01*
X8347451Y-16576622D01*
X8295276Y-16622380D01*
X8237266Y-16649431D01*
X8050859Y-16779953D01*
X7889953Y-16940859D01*
X7759432Y-17127264D01*
X7663261Y-17333502D01*
X7604364Y-17553310D01*
X7584531Y-17779999D01*
X7604364Y-18006689D01*
X7663261Y-18226497D01*
X7759432Y-18432735D01*
X7889953Y-18619140D01*
X8050859Y-18780046D01*
X8237263Y-18910566D01*
X8237266Y-18910568D01*
X8295275Y-18937618D01*
X8347450Y-18983375D01*
X8366869Y-19050000D01*
X8347450Y-19116625D01*
X8295275Y-19162382D01*
X8237263Y-19189433D01*
X8050859Y-19319953D01*
X7889953Y-19480859D01*
X7759432Y-19667264D01*
X7663261Y-19873502D01*
X7604364Y-20093310D01*
X7584531Y-20320000D01*
X7604364Y-20546689D01*
X7663261Y-20766497D01*
X7759432Y-20972735D01*
X7889953Y-21159140D01*
X8050859Y-21320046D01*
X8208363Y-21430330D01*
X8237266Y-21450568D01*
X8295275Y-21477618D01*
X8347450Y-21523375D01*
X8366869Y-21590000D01*
X8347450Y-21656625D01*
X8295275Y-21702381D01*
X8274576Y-21712033D01*
X8237263Y-21729433D01*
X8050859Y-21859953D01*
X7889953Y-22020859D01*
X7759432Y-22207264D01*
X7663261Y-22413502D01*
X7604364Y-22633310D01*
X7584531Y-22860000D01*
X7604364Y-23086689D01*
X7663261Y-23306497D01*
X7759432Y-23512735D01*
X7889953Y-23699140D01*
X8050859Y-23860046D01*
X8237263Y-23990566D01*
X8237266Y-23990568D01*
X8295275Y-24017618D01*
X8347450Y-24063375D01*
X8366869Y-24130000D01*
X8347450Y-24196625D01*
X8295275Y-24242382D01*
X8237263Y-24269433D01*
X8050859Y-24399953D01*
X7889953Y-24560859D01*
X7759432Y-24747264D01*
X7663261Y-24953502D01*
X7604364Y-25173310D01*
X7584531Y-25400000D01*
X7604364Y-25626689D01*
X7663261Y-25846497D01*
X7759432Y-26052735D01*
X7889953Y-26239140D01*
X8050859Y-26400046D01*
X8237263Y-26530566D01*
X8237266Y-26530568D01*
X8295275Y-26557618D01*
X8347450Y-26603375D01*
X8366869Y-26670000D01*
X8347450Y-26736625D01*
X8295275Y-26782382D01*
X8237263Y-26809433D01*
X8050859Y-26939953D01*
X7889953Y-27100859D01*
X7759432Y-27287264D01*
X7663261Y-27493502D01*
X7604364Y-27713310D01*
X7584531Y-27939999D01*
X7604364Y-28166689D01*
X7663261Y-28386497D01*
X7759432Y-28592735D01*
X7889953Y-28779140D01*
X8050859Y-28940046D01*
X8237263Y-29070566D01*
X8237266Y-29070568D01*
X8295275Y-29097618D01*
X8347450Y-29143375D01*
X8366869Y-29210000D01*
X8347450Y-29276625D01*
X8295275Y-29322382D01*
X8237263Y-29349433D01*
X8050859Y-29479953D01*
X7889953Y-29640859D01*
X7759432Y-29827264D01*
X7663261Y-30033502D01*
X7604364Y-30253310D01*
X7584531Y-30479999D01*
X7604364Y-30706689D01*
X7663261Y-30926497D01*
X7759432Y-31132735D01*
X7889953Y-31319140D01*
X8050859Y-31480046D01*
X8237263Y-31610566D01*
X8237266Y-31610568D01*
X8295275Y-31637618D01*
X8347450Y-31683375D01*
X8366869Y-31750000D01*
X8347450Y-31816625D01*
X8295275Y-31862382D01*
X8237263Y-31889433D01*
X8050859Y-32019953D01*
X7889953Y-32180859D01*
X7759432Y-32367264D01*
X7663261Y-32573502D01*
X7604364Y-32793310D01*
X7584531Y-33020000D01*
X7604364Y-33246689D01*
X7663261Y-33466497D01*
X7759432Y-33672735D01*
X7889953Y-33859140D01*
X8050859Y-34020046D01*
X8237266Y-34150568D01*
X8295273Y-34177617D01*
X8347449Y-34223373D01*
X8366869Y-34289997D01*
X8347451Y-34356622D01*
X8295276Y-34402380D01*
X8237266Y-34429431D01*
X8050859Y-34559953D01*
X7889953Y-34720859D01*
X7759432Y-34907264D01*
X7663261Y-35113502D01*
X7604364Y-35333310D01*
X7584531Y-35560000D01*
X7604364Y-35786689D01*
X7663261Y-36006497D01*
X7759432Y-36212735D01*
X7889953Y-36399140D01*
X8050859Y-36560046D01*
X8093750Y-36590078D01*
X8237266Y-36690568D01*
X8295275Y-36717618D01*
X8347450Y-36763375D01*
X8366869Y-36830000D01*
X8347450Y-36896625D01*
X8295275Y-36942382D01*
X8237263Y-36969433D01*
X8050859Y-37099953D01*
X7889953Y-37260859D01*
X7759432Y-37447264D01*
X7663261Y-37653502D01*
X7604364Y-37873310D01*
X7584531Y-38100000D01*
X7604364Y-38326689D01*
X7663261Y-38546497D01*
X7759432Y-38752735D01*
X7889953Y-38939140D01*
X8050859Y-39100046D01*
X8237263Y-39230566D01*
X8237266Y-39230568D01*
X8295275Y-39257618D01*
X8347450Y-39303375D01*
X8366869Y-39370000D01*
X8347450Y-39436625D01*
X8295275Y-39482382D01*
X8237263Y-39509433D01*
X8050859Y-39639953D01*
X7889953Y-39800859D01*
X7759432Y-39987264D01*
X7663261Y-40193502D01*
X7604364Y-40413310D01*
X7584531Y-40640000D01*
X7604364Y-40866689D01*
X7663261Y-41086497D01*
X7759432Y-41292735D01*
X7889953Y-41479140D01*
X7893832Y-41483019D01*
X7924082Y-41532382D01*
X7928624Y-41590098D01*
X7906469Y-41643585D01*
X7862446Y-41681185D01*
X7806151Y-41694700D01*
X-7806151Y-41694700D01*
X-7862446Y-41681185D01*
X-7906469Y-41643585D01*
X-7928624Y-41590098D01*
X-7924082Y-41532382D01*
X-7893832Y-41483019D01*
X-7889953Y-41479140D01*
X-7759432Y-41292735D01*
X-7663261Y-41086497D01*
X-7604364Y-40866689D01*
X-7584531Y-40640000D01*
X-7604364Y-40413310D01*
X-7663261Y-40193502D01*
X-7759432Y-39987264D01*
X-7889953Y-39800859D01*
X-8050859Y-39639953D01*
X-8237263Y-39509433D01*
X-8295275Y-39482382D01*
X-8347450Y-39436625D01*
X-8366869Y-39370000D01*
X-8347450Y-39303375D01*
X-8295275Y-39257618D01*
X-8237266Y-39230568D01*
X-8237263Y-39230566D01*
X-8050859Y-39100046D01*
X-7933416Y-38982603D01*
X-680300Y-38982603D01*
X-640764Y-39143011D01*
X-614337Y-39193360D01*
X-563988Y-39289293D01*
X-454436Y-39412952D01*
X-318473Y-39506800D01*
X-164002Y-39565384D01*
X-41155Y-39580300D01*
X41154Y-39580300D01*
X41155Y-39580300D01*
X164002Y-39565384D01*
X318473Y-39506800D01*
X454436Y-39412952D01*
X563988Y-39289293D01*
X614337Y-39193360D01*
X640764Y-39143011D01*
X680300Y-38982603D01*
X680300Y-38817397D01*
X640764Y-38656988D01*
X563987Y-38510706D01*
X454437Y-38387048D01*
X318472Y-38293199D01*
X164002Y-38234616D01*
X164001Y-38234615D01*
X41155Y-38219700D01*
X-41155Y-38219700D01*
X-164001Y-38234615D01*
X-164002Y-38234616D01*
X-318472Y-38293199D01*
X-454437Y-38387048D01*
X-563987Y-38510706D01*
X-640764Y-38656988D01*
X-680300Y-38817397D01*
X-680300Y-38982603D01*
X-7933416Y-38982603D01*
X-7889953Y-38939140D01*
X-7759432Y-38752735D01*
X-7663261Y-38546497D01*
X-7604364Y-38326689D01*
X-7584531Y-38100000D01*
X-7604364Y-37873310D01*
X-7663261Y-37653502D01*
X-7759432Y-37447264D01*
X-7889953Y-37260859D01*
X-7968209Y-37182603D01*
X-680300Y-37182603D01*
X-640764Y-37343011D01*
X-614337Y-37393360D01*
X-563988Y-37489293D01*
X-454436Y-37612952D01*
X-318473Y-37706800D01*
X-164002Y-37765384D01*
X-41155Y-37780300D01*
X41154Y-37780300D01*
X41155Y-37780300D01*
X164002Y-37765384D01*
X318473Y-37706800D01*
X454436Y-37612952D01*
X563988Y-37489293D01*
X614337Y-37393360D01*
X640764Y-37343011D01*
X680300Y-37182603D01*
X680300Y-37017397D01*
X640764Y-36856988D01*
X563987Y-36710706D01*
X454437Y-36587048D01*
X318472Y-36493199D01*
X164002Y-36434616D01*
X155560Y-36433591D01*
X41155Y-36419700D01*
X-41155Y-36419700D01*
X-155560Y-36433591D01*
X-164002Y-36434616D01*
X-318472Y-36493199D01*
X-454437Y-36587048D01*
X-563987Y-36710706D01*
X-640764Y-36856988D01*
X-680300Y-37017397D01*
X-680300Y-37182603D01*
X-7968209Y-37182603D01*
X-8050859Y-37099953D01*
X-8237263Y-36969433D01*
X-8295275Y-36942382D01*
X-8347450Y-36896625D01*
X-8366869Y-36830000D01*
X-8347450Y-36763375D01*
X-8295275Y-36717618D01*
X-8237266Y-36690568D01*
X-8093750Y-36590078D01*
X-8050859Y-36560046D01*
X-7889953Y-36399140D01*
X-7759432Y-36212735D01*
X-7663261Y-36006497D01*
X-7604364Y-35786689D01*
X-7584531Y-35560000D01*
X-7604364Y-35333310D01*
X-7663261Y-35113502D01*
X-7759432Y-34907264D01*
X-7889953Y-34720859D01*
X-8050859Y-34559953D01*
X-8237266Y-34429431D01*
X-8295276Y-34402380D01*
X-8347451Y-34356622D01*
X-8366869Y-34289997D01*
X-8347449Y-34223373D01*
X-8295273Y-34177617D01*
X-8237266Y-34150568D01*
X-8050859Y-34020046D01*
X-7889953Y-33859140D01*
X-7759432Y-33672735D01*
X-7663261Y-33466497D01*
X-7604364Y-33246689D01*
X-7584531Y-33020000D01*
X-7604364Y-32793310D01*
X-7663261Y-32573502D01*
X-7759432Y-32367264D01*
X-7889953Y-32180859D01*
X-8050859Y-32019953D01*
X-8237263Y-31889433D01*
X-8295275Y-31862382D01*
X-8347450Y-31816625D01*
X-8366869Y-31750000D01*
X-8347450Y-31683375D01*
X-8295275Y-31637618D01*
X-8237266Y-31610568D01*
X-8237263Y-31610566D01*
X-8050859Y-31480046D01*
X-7889953Y-31319140D01*
X-7759432Y-31132735D01*
X-7663261Y-30926497D01*
X-7604364Y-30706689D01*
X-7584531Y-30479999D01*
X-7604364Y-30253310D01*
X-7663261Y-30033502D01*
X-7759432Y-29827264D01*
X-7889953Y-29640859D01*
X-8050859Y-29479953D01*
X-8237263Y-29349433D01*
X-8295275Y-29322382D01*
X-8347450Y-29276625D01*
X-8366869Y-29210000D01*
X-8347450Y-29143375D01*
X-8295275Y-29097618D01*
X-8237266Y-29070568D01*
X-8237263Y-29070566D01*
X-8050859Y-28940046D01*
X-7889953Y-28779140D01*
X-7759432Y-28592735D01*
X-7663261Y-28386497D01*
X-7604364Y-28166689D01*
X-7584531Y-27939999D01*
X-7604364Y-27713310D01*
X-7663261Y-27493502D01*
X-7759432Y-27287264D01*
X-7889953Y-27100859D01*
X-8050859Y-26939953D01*
X-8237263Y-26809433D01*
X-8295275Y-26782382D01*
X-8347450Y-26736625D01*
X-8366869Y-26670000D01*
X-8347450Y-26603375D01*
X-8295275Y-26557618D01*
X-8237266Y-26530568D01*
X-8237263Y-26530566D01*
X-8050859Y-26400046D01*
X-7889953Y-26239140D01*
X-7759432Y-26052735D01*
X-7663261Y-25846497D01*
X-7604364Y-25626689D01*
X-7584531Y-25400000D01*
X-7604364Y-25173310D01*
X-7663261Y-24953502D01*
X-7759432Y-24747264D01*
X-7889953Y-24560859D01*
X-8050859Y-24399953D01*
X-8237263Y-24269433D01*
X-8295275Y-24242382D01*
X-8347450Y-24196625D01*
X-8366869Y-24130000D01*
X-8347450Y-24063375D01*
X-8295275Y-24017618D01*
X-8237266Y-23990568D01*
X-8237263Y-23990566D01*
X-8050859Y-23860046D01*
X-7889953Y-23699140D01*
X-7759432Y-23512735D01*
X-7663261Y-23306497D01*
X-7604364Y-23086689D01*
X-7584531Y-22860000D01*
X-7604364Y-22633310D01*
X-7663261Y-22413502D01*
X-7759432Y-22207264D01*
X-7889953Y-22020859D01*
X-8050859Y-21859953D01*
X-8237263Y-21729433D01*
X-8274576Y-21712033D01*
X-8295275Y-21702381D01*
X-8347450Y-21656625D01*
X-8366869Y-21590000D01*
X-8347450Y-21523375D01*
X-8295275Y-21477618D01*
X-8237266Y-21450568D01*
X-8208363Y-21430330D01*
X-8050859Y-21320046D01*
X-7889953Y-21159140D01*
X-7759432Y-20972735D01*
X-7663261Y-20766497D01*
X-7604364Y-20546689D01*
X-7584531Y-20320000D01*
X-7604364Y-20093310D01*
X-7663261Y-19873502D01*
X-7697536Y-19800000D01*
X-7310396Y-19800000D01*
X-7290078Y-19980330D01*
X-7230142Y-20151618D01*
X-7133593Y-20305274D01*
X-7005274Y-20433593D01*
X-6851618Y-20530142D01*
X-6680330Y-20590078D01*
X-6500000Y-20610396D01*
X-6319670Y-20590078D01*
X-6154508Y-20532285D01*
X-6088684Y-20527848D01*
X-6029898Y-20557801D01*
X-5994796Y-20613666D01*
X-5993315Y-20679626D01*
X-6025876Y-20737009D01*
X-6033593Y-20744726D01*
X-6130142Y-20898382D01*
X-6190078Y-21069670D01*
X-6210396Y-21250000D01*
X-6190078Y-21430330D01*
X-6130142Y-21601618D01*
X-6033593Y-21755274D01*
X-5905274Y-21883593D01*
X-5751618Y-21980142D01*
X-5580330Y-22040078D01*
X-5400000Y-22060396D01*
X-5219670Y-22040078D01*
X-5048382Y-21980142D01*
X-4894726Y-21883593D01*
X-4894724Y-21883591D01*
X-4882896Y-21876159D01*
X-4882395Y-21876955D01*
X-4859324Y-21861539D01*
X-4811871Y-21852100D01*
X-4450760Y-21852100D01*
X-4403307Y-21861539D01*
X-4363079Y-21888419D01*
X-2838419Y-23413079D01*
X-2811539Y-23453307D01*
X-2802100Y-23500760D01*
X-2802100Y-35211871D01*
X-2811539Y-35259324D01*
X-2826955Y-35282395D01*
X-2826159Y-35282896D01*
X-2833591Y-35294724D01*
X-2833593Y-35294726D01*
X-2930142Y-35448382D01*
X-2990078Y-35619670D01*
X-3010396Y-35800000D01*
X-2990078Y-35980330D01*
X-2930142Y-36151618D01*
X-2833593Y-36305274D01*
X-2705274Y-36433593D01*
X-2551618Y-36530142D01*
X-2380330Y-36590078D01*
X-2200000Y-36610396D01*
X-2019670Y-36590078D01*
X-1848382Y-36530142D01*
X-1694726Y-36433593D01*
X-1566407Y-36305274D01*
X-1469858Y-36151618D01*
X-1409922Y-35980330D01*
X-1409921Y-35980329D01*
X-1409921Y-35980327D01*
X-1389603Y-35800000D01*
X-1409921Y-35619672D01*
X-1469858Y-35448382D01*
X-1542163Y-35333310D01*
X-1566407Y-35294726D01*
X-1566408Y-35294724D01*
X-1573841Y-35282896D01*
X-1573044Y-35282395D01*
X-1588461Y-35259324D01*
X-1597900Y-35211871D01*
X-1597900Y-23302959D01*
X-1584385Y-23246664D01*
X-1546785Y-23202641D01*
X-1493298Y-23180486D01*
X-1435582Y-23185028D01*
X-1386219Y-23215277D01*
X-332066Y-24269432D01*
X717135Y-25318633D01*
X749228Y-25374217D01*
X749231Y-25438400D01*
X723624Y-25482760D01*
X723840Y-25482896D01*
X720227Y-25488646D01*
X717144Y-25493987D01*
X716409Y-25494721D01*
X619858Y-25648381D01*
X559921Y-25819672D01*
X539603Y-26000000D01*
X559921Y-26180327D01*
X559921Y-26180329D01*
X559922Y-26180330D01*
X619858Y-26351618D01*
X716407Y-26505274D01*
X844726Y-26633593D01*
X998382Y-26730142D01*
X1169670Y-26790078D01*
X1260560Y-26800318D01*
X1300479Y-26811818D01*
X1334359Y-26835857D01*
X1940599Y-27442097D01*
X1951293Y-27454291D01*
X1970576Y-27479420D01*
X1970578Y-27479422D01*
X1988930Y-27493504D01*
X1995703Y-27498701D01*
X1995705Y-27498703D01*
X2089905Y-27570985D01*
X2094824Y-27575299D01*
X2096351Y-27575931D01*
X2096352Y-27575932D01*
X2096353Y-27575933D01*
X2242820Y-27636602D01*
X2360540Y-27652100D01*
X2360545Y-27652100D01*
X2368589Y-27653159D01*
X2368602Y-27653160D01*
X2400000Y-27657294D01*
X2431395Y-27653161D01*
X2447580Y-27652100D01*
X3402420Y-27652100D01*
X3418604Y-27653160D01*
X3450000Y-27657294D01*
X3481395Y-27653160D01*
X3481408Y-27653160D01*
X3489460Y-27652100D01*
X3607180Y-27636602D01*
X3753647Y-27575933D01*
X3753647Y-27575932D01*
X3753647Y-27575931D01*
X3761111Y-27572840D01*
X3769888Y-27563469D01*
X3847847Y-27503651D01*
X3847847Y-27503650D01*
X3864136Y-27491152D01*
X3864146Y-27491143D01*
X3879422Y-27479422D01*
X3898710Y-27454284D01*
X3909390Y-27442106D01*
X4515642Y-26835854D01*
X4549519Y-26811817D01*
X4589430Y-26800319D01*
X4680330Y-26790078D01*
X4851618Y-26730142D01*
X5005274Y-26633593D01*
X5133593Y-26505274D01*
X5230142Y-26351618D01*
X5290078Y-26180330D01*
X5300319Y-26089430D01*
X5311817Y-26049519D01*
X5335854Y-26015642D01*
X6190685Y-25160811D01*
X6202870Y-25150125D01*
X6228000Y-25130844D01*
X6252226Y-25099271D01*
X6252230Y-25099268D01*
X6324512Y-25005069D01*
X6385180Y-24858602D01*
X6405873Y-24701422D01*
X6401738Y-24670019D01*
X6400678Y-24653835D01*
X6400678Y-19658388D01*
X6401739Y-19642201D01*
X6403161Y-19631401D01*
X6403161Y-19631395D01*
X6404704Y-19619672D01*
X6407294Y-19600000D01*
X6403161Y-19568605D01*
X6402100Y-19552420D01*
X6402100Y-19360299D01*
X6403161Y-19344113D01*
X6407295Y-19312713D01*
X6386602Y-19155533D01*
X6359682Y-19090543D01*
X6358270Y-19087134D01*
X6349270Y-19029259D01*
X6367837Y-18973709D01*
X6372366Y-18966500D01*
X6372368Y-18966499D01*
X6468917Y-18812843D01*
X6528853Y-18641555D01*
X6549171Y-18461225D01*
X6528853Y-18280895D01*
X6468917Y-18109607D01*
X6372368Y-17955951D01*
X6372366Y-17955949D01*
X6364934Y-17944121D01*
X6365730Y-17943620D01*
X6350314Y-17920549D01*
X6340875Y-17873096D01*
X6340875Y-17386361D01*
X6341936Y-17370175D01*
X6346070Y-17338774D01*
X6343662Y-17320488D01*
X6325377Y-17181595D01*
X6264708Y-17035128D01*
X6192427Y-16940929D01*
X6192423Y-16940925D01*
X6187479Y-16934482D01*
X6187479Y-16934481D01*
X6187475Y-16934477D01*
X6168197Y-16909353D01*
X6143062Y-16890066D01*
X6130876Y-16879378D01*
X3188419Y-13936921D01*
X3161539Y-13896693D01*
X3152100Y-13849240D01*
X3152100Y-5080000D01*
X7585033Y-5080000D01*
X7604858Y-5306602D01*
X7663733Y-5526326D01*
X7759866Y-5732484D01*
X7810972Y-5805471D01*
X7810974Y-5805472D01*
X8536446Y-5080001D01*
X8536446Y-5080000D01*
X7810973Y-4354526D01*
X7810973Y-4354527D01*
X7759865Y-4427516D01*
X7663733Y-4633672D01*
X7604858Y-4853397D01*
X7585033Y-5080000D01*
X3152100Y-5080000D01*
X3152100Y-588129D01*
X3161539Y-540676D01*
X3176955Y-517604D01*
X3176159Y-517104D01*
X3183592Y-505275D01*
X3183593Y-505274D01*
X3280142Y-351618D01*
X3340078Y-180330D01*
X3360396Y0D01*
X3340078Y180330D01*
X3280142Y351618D01*
X3183593Y505274D01*
X3055274Y633593D01*
X2901618Y730142D01*
X2730330Y790078D01*
X2550000Y810396D01*
X2369670Y790078D01*
X2198382Y730142D01*
X2044726Y633593D01*
X2044724Y633591D01*
X2012681Y601548D01*
X1957094Y569454D01*
X1892906Y569454D01*
X1837319Y601548D01*
X1805274Y633593D01*
X1651618Y730142D01*
X1480330Y790078D01*
X1300000Y810396D01*
X1119670Y790078D01*
X948382Y730142D01*
X794726Y633593D01*
X666407Y505274D01*
X569858Y351618D01*
X569858Y351617D01*
X509921Y180327D01*
X489603Y0D01*
X509921Y-180327D01*
X509921Y-180329D01*
X509922Y-180330D01*
X569858Y-351618D01*
X666407Y-505274D01*
X794726Y-633593D01*
X948382Y-730142D01*
X1119670Y-790078D01*
X1210560Y-800318D01*
X1250479Y-811818D01*
X1284359Y-835857D01*
X1555981Y-1107479D01*
X1582861Y-1147707D01*
X1592300Y-1195160D01*
X1592300Y-9424024D01*
X1577930Y-9481965D01*
X1538152Y-9526477D01*
X1482184Y-9547244D01*
X1369672Y-9559921D01*
X1198382Y-9619858D01*
X1044724Y-9716408D01*
X916408Y-9844724D01*
X819858Y-9998382D01*
X759921Y-10169672D01*
X739603Y-10350000D01*
X759921Y-10530327D01*
X759921Y-10530329D01*
X759922Y-10530330D01*
X819858Y-10701618D01*
X916407Y-10855274D01*
X916408Y-10855275D01*
X923841Y-10867104D01*
X923044Y-10867604D01*
X938461Y-10890676D01*
X947900Y-10938129D01*
X947900Y-15044008D01*
X946839Y-15060193D01*
X942705Y-15091588D01*
X946839Y-15122983D01*
X946839Y-15122990D01*
X962192Y-15239604D01*
X962193Y-15239614D01*
X963397Y-15248767D01*
X1024065Y-15395232D01*
X1024066Y-15395234D01*
X1024067Y-15395235D01*
X1096349Y-15489435D01*
X1096351Y-15489437D01*
X1096353Y-15489439D01*
X1096355Y-15489443D01*
X1120577Y-15521010D01*
X1145708Y-15540294D01*
X1157902Y-15550988D01*
X3460236Y-17853322D01*
X3470930Y-17865516D01*
X3490213Y-17890645D01*
X3490215Y-17890647D01*
X3515340Y-17909926D01*
X3515343Y-17909929D01*
X3521789Y-17914875D01*
X3521791Y-17914877D01*
X3615990Y-17987158D01*
X3762457Y-18047827D01*
X3901350Y-18066112D01*
X3919636Y-18068520D01*
X3919636Y-18068519D01*
X3919637Y-18068520D01*
X3951039Y-18064385D01*
X3967224Y-18063325D01*
X4150646Y-18063325D01*
X4198099Y-18072764D01*
X4221170Y-18088180D01*
X4221671Y-18087384D01*
X4233499Y-18094816D01*
X4233501Y-18094818D01*
X4387157Y-18191367D01*
X4494832Y-18229044D01*
X4538216Y-18255185D01*
X4567529Y-18296497D01*
X4577875Y-18346084D01*
X4577875Y-18645108D01*
X4576814Y-18661293D01*
X4572680Y-18692688D01*
X4576814Y-18724083D01*
X4576814Y-18724090D01*
X4588499Y-18812843D01*
X4588499Y-18812846D01*
X4593372Y-18849866D01*
X4654040Y-18996332D01*
X4654041Y-18996334D01*
X4654042Y-18996335D01*
X4726324Y-19090535D01*
X4726326Y-19090537D01*
X4726328Y-19090539D01*
X4726330Y-19090543D01*
X4750552Y-19122110D01*
X4775683Y-19141394D01*
X4787877Y-19152088D01*
X4835013Y-19199224D01*
X4864373Y-19245950D01*
X4870552Y-19300788D01*
X4852326Y-19352876D01*
X4813305Y-19391898D01*
X4734776Y-19441241D01*
X4696522Y-19465279D01*
X4682897Y-19473840D01*
X4682396Y-19473043D01*
X4659324Y-19488461D01*
X4611871Y-19497900D01*
X4500760Y-19497900D01*
X4453307Y-19488461D01*
X4413079Y-19461581D01*
X-2102781Y-12945721D01*
X-2129661Y-12905493D01*
X-2139100Y-12858040D01*
X-2139100Y-7106386D01*
X-2138039Y-7090200D01*
X-2133904Y-7058799D01*
X-2154598Y-6901619D01*
X-2215264Y-6755155D01*
X-2287546Y-6660956D01*
X-2311779Y-6629376D01*
X-2336909Y-6610092D01*
X-2349099Y-6599401D01*
X-2464141Y-6484359D01*
X-2488180Y-6450480D01*
X-2499680Y-6410562D01*
X-2509921Y-6319672D01*
X-2569858Y-6148382D01*
X-2666408Y-5994724D01*
X-2794724Y-5866408D01*
X-2948382Y-5769858D01*
X-3119672Y-5709921D01*
X-3287784Y-5690980D01*
X-3343752Y-5670214D01*
X-3383530Y-5625701D01*
X-3397900Y-5567760D01*
X-3397900Y-1750760D01*
X-3388461Y-1703307D01*
X-3361581Y-1663079D01*
X-2534359Y-835857D01*
X-2500479Y-811818D01*
X-2460560Y-800318D01*
X-2369670Y-790078D01*
X-2198382Y-730142D01*
X-2044726Y-633593D01*
X-1916407Y-505274D01*
X-1819858Y-351618D01*
X-1759922Y-180330D01*
X-1759921Y-180329D01*
X-1759921Y-180327D01*
X-1739603Y0D01*
X-1759921Y180327D01*
X-1819858Y351617D01*
X-1819858Y351618D01*
X-1916407Y505274D01*
X-2044726Y633593D01*
X-2198382Y730142D01*
X-2369670Y790078D01*
X-2489890Y803623D01*
X-2549999Y810396D01*
X-2549999Y810395D01*
X-2550000Y810396D01*
X-2730330Y790078D01*
X-2901618Y730142D01*
X-3055274Y633593D01*
X-3183593Y505274D01*
X-3280142Y351618D01*
X-3340078Y180330D01*
X-3350319Y89430D01*
X-3361817Y49519D01*
X-3385854Y15642D01*
X-4191576Y-790078D01*
X-4392097Y-990599D01*
X-4404291Y-1001293D01*
X-4429420Y-1020576D01*
X-4429420Y-1020577D01*
X-4429422Y-1020578D01*
X-4453648Y-1052150D01*
X-4453651Y-1052153D01*
X-4525933Y-1146353D01*
X-4586602Y-1292820D01*
X-4600960Y-1401887D01*
X-4603161Y-1418598D01*
X-4603161Y-1418605D01*
X-4607294Y-1449999D01*
X-4603161Y-1481395D01*
X-4602100Y-1497580D01*
X-4602100Y-16479028D01*
X-4616470Y-16536970D01*
X-4656249Y-16581482D01*
X-4712217Y-16602247D01*
X-4722111Y-16603362D01*
X-4780327Y-16609921D01*
X-4780329Y-16609921D01*
X-4780330Y-16609922D01*
X-4951618Y-16669858D01*
X-5105274Y-16766407D01*
X-5233593Y-16894726D01*
X-5330142Y-17048382D01*
X-5390078Y-17219670D01*
X-5410396Y-17400000D01*
X-5390078Y-17580330D01*
X-5330142Y-17751618D01*
X-5233593Y-17905274D01*
X-5233590Y-17905276D01*
X-5226159Y-17917104D01*
X-5226955Y-17917604D01*
X-5211539Y-17940676D01*
X-5202100Y-17988129D01*
X-5202100Y-18099240D01*
X-5211539Y-18146693D01*
X-5238419Y-18186921D01*
X-6073267Y-19021769D01*
X-6133355Y-19054979D01*
X-6201902Y-19051130D01*
X-6319671Y-19009921D01*
X-6500000Y-18989603D01*
X-6680327Y-19009921D01*
X-6680329Y-19009921D01*
X-6680330Y-19009922D01*
X-6851618Y-19069858D01*
X-7005274Y-19166407D01*
X-7133593Y-19294726D01*
X-7230142Y-19448382D01*
X-7290078Y-19619670D01*
X-7310396Y-19800000D01*
X-7697536Y-19800000D01*
X-7759432Y-19667264D01*
X-7889953Y-19480859D01*
X-8050859Y-19319953D01*
X-8237263Y-19189433D01*
X-8295275Y-19162382D01*
X-8347450Y-19116625D01*
X-8366869Y-19050000D01*
X-8347450Y-18983375D01*
X-8295275Y-18937618D01*
X-8237266Y-18910568D01*
X-8237263Y-18910566D01*
X-8050859Y-18780046D01*
X-7889953Y-18619140D01*
X-7759432Y-18432735D01*
X-7663261Y-18226497D01*
X-7604364Y-18006689D01*
X-7584531Y-17779999D01*
X-7604364Y-17553310D01*
X-7663261Y-17333502D01*
X-7759432Y-17127264D01*
X-7889953Y-16940859D01*
X-8050859Y-16779953D01*
X-8237266Y-16649431D01*
X-8295276Y-16622380D01*
X-8347451Y-16576622D01*
X-8366869Y-16509997D01*
X-8347449Y-16443373D01*
X-8295273Y-16397617D01*
X-8237266Y-16370568D01*
X-8201252Y-16345351D01*
X-8050859Y-16240046D01*
X-7889953Y-16079140D01*
X-7759432Y-15892735D01*
X-7663261Y-15686497D01*
X-7604364Y-15466689D01*
X-7584531Y-15239999D01*
X-7604364Y-15013310D01*
X-7663261Y-14793502D01*
X-7759432Y-14587264D01*
X-7889953Y-14400859D01*
X-8050859Y-14239953D01*
X-8237266Y-14109431D01*
X-8295276Y-14082380D01*
X-8347451Y-14036622D01*
X-8366869Y-13969997D01*
X-8347449Y-13903373D01*
X-8295273Y-13857617D01*
X-8237266Y-13830568D01*
X-8237265Y-13830567D01*
X-8050859Y-13700046D01*
X-7889953Y-13539140D01*
X-7759432Y-13352735D01*
X-7663261Y-13146497D01*
X-7604364Y-12926689D01*
X-7584531Y-12700000D01*
X-7604364Y-12473310D01*
X-7663261Y-12253502D01*
X-7759432Y-12047264D01*
X-7889953Y-11860859D01*
X-8050859Y-11699953D01*
X-8237266Y-11569431D01*
X-8295276Y-11542380D01*
X-8347451Y-11496622D01*
X-8366869Y-11429997D01*
X-8347449Y-11363373D01*
X-8295273Y-11317617D01*
X-8237266Y-11290568D01*
X-8050859Y-11160046D01*
X-7889953Y-10999140D01*
X-7759432Y-10812735D01*
X-7663261Y-10606497D01*
X-7604364Y-10386689D01*
X-7584531Y-10160000D01*
X-7604364Y-9933310D01*
X-7663261Y-9713502D01*
X-7759432Y-9507264D01*
X-7889953Y-9320859D01*
X-8050859Y-9159953D01*
X-8237263Y-9029433D01*
X-8295275Y-9002382D01*
X-8347450Y-8956625D01*
X-8366869Y-8890000D01*
X-8347450Y-8823375D01*
X-8295275Y-8777618D01*
X-8237266Y-8750568D01*
X-8237263Y-8750566D01*
X-8050859Y-8620046D01*
X-7889953Y-8459140D01*
X-7759432Y-8272735D01*
X-7663261Y-8066497D01*
X-7604364Y-7846689D01*
X-7584531Y-7620000D01*
X-7604364Y-7393310D01*
X-7663261Y-7173502D01*
X-7759432Y-6967264D01*
X-7889953Y-6780859D01*
X-8050859Y-6619953D01*
X-8237267Y-6489430D01*
X-8295866Y-6462105D01*
X-8348041Y-6416348D01*
X-8367460Y-6349723D01*
X-8348040Y-6283099D01*
X-8295865Y-6237342D01*
X-8237515Y-6210133D01*
X-8164526Y-6159026D01*
X-8164526Y-6159025D01*
X-9155871Y-5167680D01*
X-9187965Y-5112093D01*
X-9187965Y-5080001D01*
X-8536446Y-5080001D01*
X-7810974Y-5805472D01*
X-7810972Y-5805471D01*
X-7759866Y-5732484D01*
X-7663733Y-5526326D01*
X-7604858Y-5306602D01*
X-7585033Y-5080000D01*
X-7604858Y-4853397D01*
X-7663733Y-4633672D01*
X-7759865Y-4427516D01*
X-7810973Y-4354527D01*
X-7810973Y-4354526D01*
X-8536446Y-5080000D01*
X-8536446Y-5080001D01*
X-9187965Y-5080001D01*
X-9187965Y-5047905D01*
X-9155871Y-4992318D01*
X-8164526Y-4000973D01*
X-8237517Y-3949865D01*
X-8295865Y-3922657D01*
X-8348041Y-3876900D01*
X-8367460Y-3810275D01*
X-8348040Y-3743650D01*
X-8295865Y-3697893D01*
X-8237266Y-3670568D01*
X-8237265Y-3670567D01*
X-8237264Y-3670567D01*
X-8050859Y-3540046D01*
X-7889953Y-3379140D01*
X-7759432Y-3192735D01*
X-7663261Y-2986497D01*
X-7604364Y-2766689D01*
X-7584531Y-2539999D01*
X-7604364Y-2313310D01*
X-7663261Y-2093502D01*
X-7759432Y-1887264D01*
X-7889953Y-1700859D01*
X-8050861Y-1539951D01*
X-8075463Y-1522725D01*
X-8114600Y-1477882D01*
X-8128333Y-1419969D01*
X-8113499Y-1362328D01*
X-8073514Y-1318239D01*
X-8017593Y-1297861D01*
X-7982517Y-1294091D01*
X-7847669Y-1243796D01*
X-7732454Y-1157546D01*
X-7646204Y-1042331D01*
X-7595909Y-907483D01*
X-7589500Y-847873D01*
X-7589500Y-180327D01*
X-7589500Y847869D01*
X-7595909Y907484D01*
X-7646204Y1042330D01*
X-7646204Y1042331D01*
X-7732454Y1157546D01*
X-7847669Y1243796D01*
X-7982517Y1294091D01*
X-8042127Y1300500D01*
X-9570700Y1300499D01*
X-9632700Y1317112D01*
X-9678087Y1362499D01*
X-9694700Y1424499D01*
X-9694700Y9300000D01*
X-3210397Y9300000D01*
X-3193814Y9152834D01*
X-3190078Y9119670D01*
X-3130142Y8948382D01*
X-3033593Y8794726D01*
X-2905274Y8666407D01*
X-2751618Y8569858D01*
X-2580330Y8509922D01*
X-2580327Y8509921D01*
X-2400000Y8489603D01*
X-2219672Y8509921D01*
X-2048381Y8569858D01*
X-1955701Y8628094D01*
X-1889729Y8647100D01*
X1889729Y8647100D01*
X1955701Y8628094D01*
X2048381Y8569858D01*
X2219672Y8509921D01*
X2400000Y8489603D01*
X2580327Y8509921D01*
X2580330Y8509922D01*
X2751618Y8569858D01*
X2905274Y8666407D01*
X3033593Y8794726D01*
X3130142Y8948382D01*
X3190078Y9119670D01*
X3193814Y9152834D01*
X3210397Y9300000D01*
X3190078Y9480327D01*
X3190078Y9480330D01*
X3130142Y9651618D01*
X3033593Y9805274D01*
X2905274Y9933593D01*
X2751618Y10030142D01*
X2580330Y10090078D01*
X2400000Y10110396D01*
X2219670Y10090078D01*
X2048382Y10030142D01*
X2024190Y10014941D01*
X1955701Y9971906D01*
X1889729Y9952900D01*
X-1889729Y9952900D01*
X-1955701Y9971906D01*
X-2024190Y10014941D01*
X-2048382Y10030142D01*
X-2219670Y10090078D01*
X-2400000Y10110396D01*
X-2580330Y10090078D01*
X-2751618Y10030142D01*
X-2905274Y9933593D01*
X-3033593Y9805274D01*
X-3130142Y9651618D01*
X-3190078Y9480330D01*
X-3190078Y9480327D01*
X-3210397Y9300000D01*
X-9694700Y9300000D01*
X-9694700Y10619258D01*
X-5320500Y10619258D01*
X-5305074Y10467562D01*
X-5244159Y10273412D01*
X-5145409Y10095498D01*
X-5012866Y9941105D01*
X-4898923Y9852906D01*
X-4851957Y9816551D01*
X-4669272Y9726940D01*
X-4603608Y9709938D01*
X-4472285Y9675937D01*
X-4451671Y9674891D01*
X-4269062Y9665630D01*
X-4067928Y9696443D01*
X-3877113Y9767113D01*
X-3704431Y9874745D01*
X-3602220Y9971906D01*
X-3556947Y10014941D01*
X-3500876Y10095500D01*
X-3440705Y10181950D01*
X-3360460Y10368941D01*
X-3340194Y10467559D01*
X-3319500Y10568259D01*
X-3319500Y11027178D01*
X-3303210Y11088615D01*
X-3258621Y11133910D01*
X-3197448Y11151163D01*
X-3135763Y11135840D01*
X-3123872Y11129303D01*
X-2969627Y11089700D01*
X-2969625Y11089700D01*
X-2850341Y11089700D01*
X-2850339Y11089700D01*
X-2732005Y11104648D01*
X-2583936Y11163273D01*
X-2455102Y11256876D01*
X-2353590Y11379583D01*
X-2285784Y11523678D01*
X-2255943Y11680111D01*
X-2266926Y11854679D01*
X-2266127Y11854729D01*
X-2269101Y11892494D01*
X-2246947Y11945983D01*
X-2202923Y11983584D01*
X-2146627Y11997100D01*
X2151303Y11997100D01*
X2204099Y11985299D01*
X2246846Y11952141D01*
X2271407Y11903938D01*
X2273107Y11849865D01*
X2255943Y11759888D01*
X2265942Y11600955D01*
X2315154Y11449498D01*
X2400485Y11315037D01*
X2516575Y11206021D01*
X2656127Y11129303D01*
X2810373Y11089700D01*
X2810375Y11089700D01*
X2929659Y11089700D01*
X2929661Y11089700D01*
X3047994Y11104648D01*
X3149852Y11144977D01*
X3209107Y11152936D01*
X3265198Y11132243D01*
X3305087Y11087708D01*
X3319500Y11029685D01*
X3319500Y10619260D01*
X3334926Y10467559D01*
X3395841Y10273412D01*
X3494589Y10095500D01*
X3627135Y9941104D01*
X3788042Y9816551D01*
X3970727Y9726940D01*
X4088512Y9696444D01*
X4167715Y9675937D01*
X4178021Y9675414D01*
X4370937Y9665630D01*
X4572071Y9696443D01*
X4762886Y9767113D01*
X4935568Y9874745D01*
X4997473Y9933591D01*
X5083053Y10014941D01*
X5199295Y10181951D01*
X5259150Y10321428D01*
X5301235Y10373579D01*
X5364311Y10396215D01*
X5429954Y10382725D01*
X5478991Y10337049D01*
X5497100Y10272527D01*
X5497100Y9810271D01*
X5478094Y9744299D01*
X5419858Y9651618D01*
X5359921Y9480327D01*
X5339603Y9300000D01*
X5359921Y9119672D01*
X5419858Y8948382D01*
X5516408Y8794724D01*
X5644724Y8666408D01*
X5798382Y8569858D01*
X5969672Y8509921D01*
X6150000Y8489603D01*
X6330327Y8509921D01*
X6330330Y8509922D01*
X6501618Y8569858D01*
X6655274Y8666407D01*
X6783593Y8794726D01*
X6880142Y8948382D01*
X6940078Y9119670D01*
X6960396Y9300000D01*
X6940078Y9480330D01*
X6880142Y9651618D01*
X6821905Y9744299D01*
X6802900Y9810271D01*
X6802900Y10992391D01*
X6805248Y11013665D01*
X6805167Y11016225D01*
X6805168Y11016228D01*
X6802961Y11086463D01*
X6802900Y11090358D01*
X6802900Y11119227D01*
X6802900Y11119234D01*
X6802342Y11123648D01*
X6801426Y11135286D01*
X6801409Y11135840D01*
X6799987Y11181107D01*
X6794033Y11201600D01*
X6790088Y11220652D01*
X6787414Y11241818D01*
X6770540Y11284436D01*
X6766754Y11295494D01*
X6753965Y11339518D01*
X6743102Y11357884D01*
X6734542Y11375359D01*
X6726689Y11395193D01*
X6726688Y11395196D01*
X6699735Y11432291D01*
X6693328Y11442047D01*
X6692667Y11443164D01*
X6669992Y11481507D01*
X6654899Y11496599D01*
X6642269Y11511386D01*
X6629726Y11528652D01*
X6594391Y11557882D01*
X6585771Y11565726D01*
X5100475Y13051022D01*
X5087094Y13067725D01*
X5085227Y13069477D01*
X5085225Y13069482D01*
X5033958Y13117623D01*
X5031257Y13120240D01*
X5010785Y13140714D01*
X5007266Y13143442D01*
X4998398Y13151016D01*
X4964974Y13182405D01*
X4946273Y13192684D01*
X4930019Y13203362D01*
X4913154Y13216445D01*
X4871078Y13234652D01*
X4860597Y13239786D01*
X4820418Y13261876D01*
X4799750Y13267182D01*
X4781351Y13273480D01*
X4761760Y13281959D01*
X4716472Y13289130D01*
X4705042Y13291498D01*
X4688726Y13295687D01*
X4660640Y13302900D01*
X4660639Y13302900D01*
X4639298Y13302900D01*
X4619900Y13304426D01*
X4598830Y13307764D01*
X4553191Y13303449D01*
X4541524Y13302900D01*
X-3039729Y13302900D01*
X-3105701Y13321906D01*
X-3198382Y13380142D01*
X-3369670Y13440078D01*
X-3550000Y13460396D01*
X-3730330Y13440078D01*
X-3901618Y13380142D01*
X-4055274Y13283593D01*
X-4183593Y13155274D01*
X-4280142Y13001618D01*
X-4334411Y12846522D01*
X-4372224Y12792092D01*
X-4432673Y12764911D01*
X-4572071Y12743556D01*
X-4762887Y12672886D01*
X-4935571Y12565252D01*
X-5083053Y12425059D01*
X-5199295Y12258049D01*
X-5279540Y12071058D01*
X-5320500Y11871741D01*
X-5320500Y10619258D01*
X-9694700Y10619258D01*
X-9694700Y14949258D01*
X-5320500Y14949258D01*
X-5305074Y14797562D01*
X-5244159Y14603412D01*
X-5145409Y14425498D01*
X-5012866Y14271105D01*
X-4898923Y14182906D01*
X-4851957Y14146551D01*
X-4669272Y14056940D01*
X-4603608Y14039938D01*
X-4472285Y14005937D01*
X-4451671Y14004891D01*
X-4269062Y13995630D01*
X-4067928Y14026443D01*
X-3877113Y14097113D01*
X-3704431Y14204745D01*
X-3628991Y14276456D01*
X-3556947Y14344941D01*
X-3500876Y14425500D01*
X-3440705Y14511950D01*
X-3360460Y14698941D01*
X-3340194Y14797559D01*
X-3319500Y14898259D01*
X-3319500Y14949260D01*
X3319500Y14949260D01*
X3334926Y14797559D01*
X3395841Y14603412D01*
X3494589Y14425500D01*
X3627135Y14271104D01*
X3788042Y14146551D01*
X3970727Y14056940D01*
X4088512Y14026444D01*
X4167715Y14005937D01*
X4178021Y14005414D01*
X4370937Y13995630D01*
X4572071Y14026443D01*
X4762886Y14097113D01*
X4935568Y14204745D01*
X4945747Y14214421D01*
X5083053Y14344941D01*
X5199295Y14511951D01*
X5279540Y14698942D01*
X5320500Y14898259D01*
X5320500Y15850742D01*
X5305074Y16002438D01*
X5244159Y16196588D01*
X5145409Y16374502D01*
X5012866Y16528895D01*
X4851958Y16653448D01*
X4669271Y16743060D01*
X4472285Y16794063D01*
X4269064Y16804369D01*
X4269063Y16804368D01*
X4269062Y16804369D01*
X4067928Y16773556D01*
X3877113Y16702886D01*
X3704431Y16595254D01*
X3704429Y16595252D01*
X3556947Y16455059D01*
X3440705Y16288049D01*
X3360460Y16101058D01*
X3340194Y16002438D01*
X3319500Y15901739D01*
X3319500Y14949260D01*
X-3319500Y14949260D01*
X-3319500Y15850742D01*
X-3334926Y16002438D01*
X-3334926Y16002440D01*
X-3395841Y16196587D01*
X-3395841Y16196588D01*
X-3494591Y16374502D01*
X-3627134Y16528895D01*
X-3788042Y16653448D01*
X-3970729Y16743060D01*
X-4167715Y16794063D01*
X-4370936Y16804369D01*
X-4370936Y16804368D01*
X-4370937Y16804369D01*
X-4572070Y16773556D01*
X-4572071Y16773556D01*
X-4762887Y16702886D01*
X-4935571Y16595252D01*
X-5083053Y16455059D01*
X-5199295Y16288049D01*
X-5279540Y16101058D01*
X-5320500Y15901741D01*
X-5320500Y14949258D01*
X-9694700Y14949258D01*
X-9694700Y16993908D01*
X-9694103Y17006063D01*
X-9682548Y17123378D01*
X-9677806Y17147218D01*
X-9645365Y17254162D01*
X-9636062Y17276620D01*
X-9583379Y17375183D01*
X-9569874Y17395395D01*
X-9498974Y17481786D01*
X-9481786Y17498974D01*
X-9395395Y17569874D01*
X-9375183Y17583379D01*
X-9276620Y17636062D01*
X-9254165Y17645363D01*
X-9200690Y17661585D01*
X-9147218Y17677806D01*
X-9123378Y17682548D01*
X-9022048Y17692528D01*
X-9006060Y17694103D01*
X-8993908Y17694700D01*
X-8951645Y17694700D01*
X8951645Y17694700D01*
X8993908Y17694700D01*
X9006060Y17694103D01*
G37*
G04 #@! TD.AperFunction*
M02*
