M48
; DRILL file {KiCad 7.0.1} date Mon Mar 20 20:30:24 2023
; FORMAT={-:-/ absolute / metric / decimal}
; #@! TF.CreationDate,2023-03-20T20:30:24+09:00
; #@! TF.GenerationSoftware,Kicad,Pcbnew,7.0.1
; #@! TF.FileFunction,MixedPlating,1,2
FMAT,2
METRIC
; #@! TA.AperFunction,Plated,PTH,ViaDrill
T1C0.305
; #@! TA.AperFunction,Plated,PTH,ComponentDrill
T2C0.600
; #@! TA.AperFunction,Plated,PTH,ComponentDrill
T3C0.800
; #@! TA.AperFunction,NonPlated,NPTH,ComponentDrill
T4C0.650
; #@! TA.AperFunction,NonPlated,NPTH,ComponentDrill
T5C0.750
%
G90
G05
T1
X-8.0Y16.0
X-6.5Y4.0
X-6.5Y-19.8
X-6.5Y-20.9
X-5.4Y-21.25
X-5.0Y-10.5
X-5.0Y-40.0
X-4.6Y-17.4
X-3.55Y12.65
X-3.3Y-6.5
X-3.3Y-7.3
X-3.2Y9.3
X-2.9Y-15.3
X-2.55Y0.0
X-2.4Y9.3
X-2.2Y-35.8
X-1.796Y-16.05
X-1.5Y-5.0
X-1.5Y-10.5
X0.0Y0.0
X0.5Y-5.0
X0.9Y-13.0
X1.0Y8.5
X1.3Y0.0
X1.35Y-26.0
X1.55Y-10.35
X2.4Y9.3
X2.55Y0.0
X2.7Y-26.45
X3.2Y9.3
X3.6Y-24.9
X4.114Y-16.865
X4.5Y-18.6
X4.5Y-26.0
X4.5Y-31.0
X4.739Y-17.461
X5.0Y-40.0
X5.2Y-20.1
X5.24Y-20.96
X5.739Y-18.461
X5.9Y-12.8
X6.15Y9.3
X6.5Y4.0
X8.0Y16.0
T3
X-8.89Y0.0
X-8.89Y-2.54
X-8.89Y-5.08
X-8.89Y-7.62
X-8.89Y-10.16
X-8.89Y-12.7
X-8.89Y-15.24
X-8.89Y-17.78
X-8.89Y-20.32
X-8.89Y-22.86
X-8.89Y-25.4
X-8.89Y-27.94
X-8.89Y-30.48
X-8.89Y-33.02
X-8.89Y-35.56
X-8.89Y-38.1
X-8.89Y-40.64
X8.89Y0.0
X8.89Y-2.54
X8.89Y-5.08
X8.89Y-7.62
X8.89Y-10.16
X8.89Y-12.7
X8.89Y-15.24
X8.89Y-17.78
X8.89Y-20.32
X8.89Y-22.86
X8.89Y-25.4
X8.89Y-27.94
X8.89Y-30.48
X8.89Y-33.02
X8.89Y-35.56
X8.89Y-38.1
X8.89Y-40.64
T4
X-2.89Y11.72
X2.89Y11.72
T5
X0.0Y-37.1
X0.0Y-38.9
T2
G00X-4.32Y15.0
M15
G01X-4.32Y15.8
M16
G05
G00X-4.32Y10.67
M15
G01X-4.32Y11.77
M16
G05
G00X4.32Y15.0
M15
G01X4.32Y15.8
M16
G05
G00X4.32Y10.67
M15
G01X4.32Y11.77
M16
G05
T0
M30
