G04 #@! TF.GenerationSoftware,KiCad,Pcbnew,7.0.1*
G04 #@! TF.CreationDate,2023-03-20T20:29:13+09:00*
G04 #@! TF.ProjectId,EB-STM32U575CIU6Q,45422d53-544d-4333-9255-353735434955,V1.0*
G04 #@! TF.SameCoordinates,Original*
G04 #@! TF.FileFunction,Legend,Top*
G04 #@! TF.FilePolarity,Positive*
%FSLAX46Y46*%
G04 Gerber Fmt 4.6, Leading zero omitted, Abs format (unit mm)*
G04 Created by KiCad (PCBNEW 7.0.1) date 2023-03-20 20:29:13*
%MOMM*%
%LPD*%
G01*
G04 APERTURE LIST*
%ADD10C,0.150000*%
%ADD11C,0.100000*%
%ADD12C,0.120000*%
%ADD13C,0.200000*%
G04 APERTURE END LIST*
D10*
X-5950000Y-33350000D02*
X-5550000Y-33350000D01*
X-7790475Y-33328809D02*
X-7457142Y-33328809D01*
X-7314285Y-33852619D02*
X-7790475Y-33852619D01*
X-7790475Y-33852619D02*
X-7790475Y-32852619D01*
X-7790475Y-32852619D02*
X-7314285Y-32852619D01*
X-6552380Y-33328809D02*
X-6409523Y-33376428D01*
X-6409523Y-33376428D02*
X-6361904Y-33424047D01*
X-6361904Y-33424047D02*
X-6314285Y-33519285D01*
X-6314285Y-33519285D02*
X-6314285Y-33662142D01*
X-6314285Y-33662142D02*
X-6361904Y-33757380D01*
X-6361904Y-33757380D02*
X-6409523Y-33805000D01*
X-6409523Y-33805000D02*
X-6504761Y-33852619D01*
X-6504761Y-33852619D02*
X-6885713Y-33852619D01*
X-6885713Y-33852619D02*
X-6885713Y-32852619D01*
X-6885713Y-32852619D02*
X-6552380Y-32852619D01*
X-6552380Y-32852619D02*
X-6457142Y-32900238D01*
X-6457142Y-32900238D02*
X-6409523Y-32947857D01*
X-6409523Y-32947857D02*
X-6361904Y-33043095D01*
X-6361904Y-33043095D02*
X-6361904Y-33138333D01*
X-6361904Y-33138333D02*
X-6409523Y-33233571D01*
X-6409523Y-33233571D02*
X-6457142Y-33281190D01*
X-6457142Y-33281190D02*
X-6552380Y-33328809D01*
X-6552380Y-33328809D02*
X-6885713Y-33328809D01*
X-5171427Y-33805000D02*
X-5028570Y-33852619D01*
X-5028570Y-33852619D02*
X-4790475Y-33852619D01*
X-4790475Y-33852619D02*
X-4695237Y-33805000D01*
X-4695237Y-33805000D02*
X-4647618Y-33757380D01*
X-4647618Y-33757380D02*
X-4599999Y-33662142D01*
X-4599999Y-33662142D02*
X-4599999Y-33566904D01*
X-4599999Y-33566904D02*
X-4647618Y-33471666D01*
X-4647618Y-33471666D02*
X-4695237Y-33424047D01*
X-4695237Y-33424047D02*
X-4790475Y-33376428D01*
X-4790475Y-33376428D02*
X-4980951Y-33328809D01*
X-4980951Y-33328809D02*
X-5076189Y-33281190D01*
X-5076189Y-33281190D02*
X-5123808Y-33233571D01*
X-5123808Y-33233571D02*
X-5171427Y-33138333D01*
X-5171427Y-33138333D02*
X-5171427Y-33043095D01*
X-5171427Y-33043095D02*
X-5123808Y-32947857D01*
X-5123808Y-32947857D02*
X-5076189Y-32900238D01*
X-5076189Y-32900238D02*
X-4980951Y-32852619D01*
X-4980951Y-32852619D02*
X-4742856Y-32852619D01*
X-4742856Y-32852619D02*
X-4599999Y-32900238D01*
X-4314284Y-32852619D02*
X-3742856Y-32852619D01*
X-4028570Y-33852619D02*
X-4028570Y-32852619D01*
X-3409522Y-33852619D02*
X-3409522Y-32852619D01*
X-3409522Y-32852619D02*
X-3076189Y-33566904D01*
X-3076189Y-33566904D02*
X-2742856Y-32852619D01*
X-2742856Y-32852619D02*
X-2742856Y-33852619D01*
X-2361903Y-32852619D02*
X-1742856Y-32852619D01*
X-1742856Y-32852619D02*
X-2076189Y-33233571D01*
X-2076189Y-33233571D02*
X-1933332Y-33233571D01*
X-1933332Y-33233571D02*
X-1838094Y-33281190D01*
X-1838094Y-33281190D02*
X-1790475Y-33328809D01*
X-1790475Y-33328809D02*
X-1742856Y-33424047D01*
X-1742856Y-33424047D02*
X-1742856Y-33662142D01*
X-1742856Y-33662142D02*
X-1790475Y-33757380D01*
X-1790475Y-33757380D02*
X-1838094Y-33805000D01*
X-1838094Y-33805000D02*
X-1933332Y-33852619D01*
X-1933332Y-33852619D02*
X-2219046Y-33852619D01*
X-2219046Y-33852619D02*
X-2314284Y-33805000D01*
X-2314284Y-33805000D02*
X-2361903Y-33757380D01*
X-1361903Y-32947857D02*
X-1314284Y-32900238D01*
X-1314284Y-32900238D02*
X-1219046Y-32852619D01*
X-1219046Y-32852619D02*
X-980951Y-32852619D01*
X-980951Y-32852619D02*
X-885713Y-32900238D01*
X-885713Y-32900238D02*
X-838094Y-32947857D01*
X-838094Y-32947857D02*
X-790475Y-33043095D01*
X-790475Y-33043095D02*
X-790475Y-33138333D01*
X-790475Y-33138333D02*
X-838094Y-33281190D01*
X-838094Y-33281190D02*
X-1409522Y-33852619D01*
X-1409522Y-33852619D02*
X-790475Y-33852619D01*
X-361903Y-32852619D02*
X-361903Y-33662142D01*
X-361903Y-33662142D02*
X-314284Y-33757380D01*
X-314284Y-33757380D02*
X-266665Y-33805000D01*
X-266665Y-33805000D02*
X-171427Y-33852619D01*
X-171427Y-33852619D02*
X19048Y-33852619D01*
X19048Y-33852619D02*
X114286Y-33805000D01*
X114286Y-33805000D02*
X161905Y-33757380D01*
X161905Y-33757380D02*
X209524Y-33662142D01*
X209524Y-33662142D02*
X209524Y-32852619D01*
X1161905Y-32852619D02*
X685715Y-32852619D01*
X685715Y-32852619D02*
X638096Y-33328809D01*
X638096Y-33328809D02*
X685715Y-33281190D01*
X685715Y-33281190D02*
X780953Y-33233571D01*
X780953Y-33233571D02*
X1019048Y-33233571D01*
X1019048Y-33233571D02*
X1114286Y-33281190D01*
X1114286Y-33281190D02*
X1161905Y-33328809D01*
X1161905Y-33328809D02*
X1209524Y-33424047D01*
X1209524Y-33424047D02*
X1209524Y-33662142D01*
X1209524Y-33662142D02*
X1161905Y-33757380D01*
X1161905Y-33757380D02*
X1114286Y-33805000D01*
X1114286Y-33805000D02*
X1019048Y-33852619D01*
X1019048Y-33852619D02*
X780953Y-33852619D01*
X780953Y-33852619D02*
X685715Y-33805000D01*
X685715Y-33805000D02*
X638096Y-33757380D01*
X1542858Y-32852619D02*
X2209524Y-32852619D01*
X2209524Y-32852619D02*
X1780953Y-33852619D01*
X3066667Y-32852619D02*
X2590477Y-32852619D01*
X2590477Y-32852619D02*
X2542858Y-33328809D01*
X2542858Y-33328809D02*
X2590477Y-33281190D01*
X2590477Y-33281190D02*
X2685715Y-33233571D01*
X2685715Y-33233571D02*
X2923810Y-33233571D01*
X2923810Y-33233571D02*
X3019048Y-33281190D01*
X3019048Y-33281190D02*
X3066667Y-33328809D01*
X3066667Y-33328809D02*
X3114286Y-33424047D01*
X3114286Y-33424047D02*
X3114286Y-33662142D01*
X3114286Y-33662142D02*
X3066667Y-33757380D01*
X3066667Y-33757380D02*
X3019048Y-33805000D01*
X3019048Y-33805000D02*
X2923810Y-33852619D01*
X2923810Y-33852619D02*
X2685715Y-33852619D01*
X2685715Y-33852619D02*
X2590477Y-33805000D01*
X2590477Y-33805000D02*
X2542858Y-33757380D01*
X4114286Y-33757380D02*
X4066667Y-33805000D01*
X4066667Y-33805000D02*
X3923810Y-33852619D01*
X3923810Y-33852619D02*
X3828572Y-33852619D01*
X3828572Y-33852619D02*
X3685715Y-33805000D01*
X3685715Y-33805000D02*
X3590477Y-33709761D01*
X3590477Y-33709761D02*
X3542858Y-33614523D01*
X3542858Y-33614523D02*
X3495239Y-33424047D01*
X3495239Y-33424047D02*
X3495239Y-33281190D01*
X3495239Y-33281190D02*
X3542858Y-33090714D01*
X3542858Y-33090714D02*
X3590477Y-32995476D01*
X3590477Y-32995476D02*
X3685715Y-32900238D01*
X3685715Y-32900238D02*
X3828572Y-32852619D01*
X3828572Y-32852619D02*
X3923810Y-32852619D01*
X3923810Y-32852619D02*
X4066667Y-32900238D01*
X4066667Y-32900238D02*
X4114286Y-32947857D01*
X4542858Y-33852619D02*
X4542858Y-32852619D01*
X5019048Y-32852619D02*
X5019048Y-33662142D01*
X5019048Y-33662142D02*
X5066667Y-33757380D01*
X5066667Y-33757380D02*
X5114286Y-33805000D01*
X5114286Y-33805000D02*
X5209524Y-33852619D01*
X5209524Y-33852619D02*
X5400000Y-33852619D01*
X5400000Y-33852619D02*
X5495238Y-33805000D01*
X5495238Y-33805000D02*
X5542857Y-33757380D01*
X5542857Y-33757380D02*
X5590476Y-33662142D01*
X5590476Y-33662142D02*
X5590476Y-32852619D01*
X6495238Y-32852619D02*
X6304762Y-32852619D01*
X6304762Y-32852619D02*
X6209524Y-32900238D01*
X6209524Y-32900238D02*
X6161905Y-32947857D01*
X6161905Y-32947857D02*
X6066667Y-33090714D01*
X6066667Y-33090714D02*
X6019048Y-33281190D01*
X6019048Y-33281190D02*
X6019048Y-33662142D01*
X6019048Y-33662142D02*
X6066667Y-33757380D01*
X6066667Y-33757380D02*
X6114286Y-33805000D01*
X6114286Y-33805000D02*
X6209524Y-33852619D01*
X6209524Y-33852619D02*
X6400000Y-33852619D01*
X6400000Y-33852619D02*
X6495238Y-33805000D01*
X6495238Y-33805000D02*
X6542857Y-33757380D01*
X6542857Y-33757380D02*
X6590476Y-33662142D01*
X6590476Y-33662142D02*
X6590476Y-33424047D01*
X6590476Y-33424047D02*
X6542857Y-33328809D01*
X6542857Y-33328809D02*
X6495238Y-33281190D01*
X6495238Y-33281190D02*
X6400000Y-33233571D01*
X6400000Y-33233571D02*
X6209524Y-33233571D01*
X6209524Y-33233571D02*
X6114286Y-33281190D01*
X6114286Y-33281190D02*
X6066667Y-33328809D01*
X6066667Y-33328809D02*
X6019048Y-33424047D01*
X7685714Y-33947857D02*
X7590476Y-33900238D01*
X7590476Y-33900238D02*
X7495238Y-33805000D01*
X7495238Y-33805000D02*
X7352381Y-33662142D01*
X7352381Y-33662142D02*
X7257143Y-33614523D01*
X7257143Y-33614523D02*
X7161905Y-33614523D01*
X7209524Y-33852619D02*
X7114286Y-33805000D01*
X7114286Y-33805000D02*
X7019048Y-33709761D01*
X7019048Y-33709761D02*
X6971429Y-33519285D01*
X6971429Y-33519285D02*
X6971429Y-33185952D01*
X6971429Y-33185952D02*
X7019048Y-32995476D01*
X7019048Y-32995476D02*
X7114286Y-32900238D01*
X7114286Y-32900238D02*
X7209524Y-32852619D01*
X7209524Y-32852619D02*
X7400000Y-32852619D01*
X7400000Y-32852619D02*
X7495238Y-32900238D01*
X7495238Y-32900238D02*
X7590476Y-32995476D01*
X7590476Y-32995476D02*
X7638095Y-33185952D01*
X7638095Y-33185952D02*
X7638095Y-33519285D01*
X7638095Y-33519285D02*
X7590476Y-33709761D01*
X7590476Y-33709761D02*
X7495238Y-33805000D01*
X7495238Y-33805000D02*
X7400000Y-33852619D01*
X7400000Y-33852619D02*
X7209524Y-33852619D01*
X-1623808Y-34472619D02*
X-1290475Y-35472619D01*
X-1290475Y-35472619D02*
X-957142Y-34472619D01*
X-99999Y-35472619D02*
X-671427Y-35472619D01*
X-385713Y-35472619D02*
X-385713Y-34472619D01*
X-385713Y-34472619D02*
X-480951Y-34615476D01*
X-480951Y-34615476D02*
X-576189Y-34710714D01*
X-576189Y-34710714D02*
X-671427Y-34758333D01*
X328572Y-35377380D02*
X376191Y-35425000D01*
X376191Y-35425000D02*
X328572Y-35472619D01*
X328572Y-35472619D02*
X280953Y-35425000D01*
X280953Y-35425000D02*
X328572Y-35377380D01*
X328572Y-35377380D02*
X328572Y-35472619D01*
X995238Y-34472619D02*
X1090476Y-34472619D01*
X1090476Y-34472619D02*
X1185714Y-34520238D01*
X1185714Y-34520238D02*
X1233333Y-34567857D01*
X1233333Y-34567857D02*
X1280952Y-34663095D01*
X1280952Y-34663095D02*
X1328571Y-34853571D01*
X1328571Y-34853571D02*
X1328571Y-35091666D01*
X1328571Y-35091666D02*
X1280952Y-35282142D01*
X1280952Y-35282142D02*
X1233333Y-35377380D01*
X1233333Y-35377380D02*
X1185714Y-35425000D01*
X1185714Y-35425000D02*
X1090476Y-35472619D01*
X1090476Y-35472619D02*
X995238Y-35472619D01*
X995238Y-35472619D02*
X900000Y-35425000D01*
X900000Y-35425000D02*
X852381Y-35377380D01*
X852381Y-35377380D02*
X804762Y-35282142D01*
X804762Y-35282142D02*
X757143Y-35091666D01*
X757143Y-35091666D02*
X757143Y-34853571D01*
X757143Y-34853571D02*
X804762Y-34663095D01*
X804762Y-34663095D02*
X852381Y-34567857D01*
X852381Y-34567857D02*
X900000Y-34520238D01*
X900000Y-34520238D02*
X995238Y-34472619D01*
X-1238095Y-40962619D02*
X-1571428Y-40486428D01*
X-1809523Y-40962619D02*
X-1809523Y-39962619D01*
X-1809523Y-39962619D02*
X-1428571Y-39962619D01*
X-1428571Y-39962619D02*
X-1333333Y-40010238D01*
X-1333333Y-40010238D02*
X-1285714Y-40057857D01*
X-1285714Y-40057857D02*
X-1238095Y-40153095D01*
X-1238095Y-40153095D02*
X-1238095Y-40295952D01*
X-1238095Y-40295952D02*
X-1285714Y-40391190D01*
X-1285714Y-40391190D02*
X-1333333Y-40438809D01*
X-1333333Y-40438809D02*
X-1428571Y-40486428D01*
X-1428571Y-40486428D02*
X-1809523Y-40486428D01*
X-428571Y-40915000D02*
X-523809Y-40962619D01*
X-523809Y-40962619D02*
X-714285Y-40962619D01*
X-714285Y-40962619D02*
X-809523Y-40915000D01*
X-809523Y-40915000D02*
X-857142Y-40819761D01*
X-857142Y-40819761D02*
X-857142Y-40438809D01*
X-857142Y-40438809D02*
X-809523Y-40343571D01*
X-809523Y-40343571D02*
X-714285Y-40295952D01*
X-714285Y-40295952D02*
X-523809Y-40295952D01*
X-523809Y-40295952D02*
X-428571Y-40343571D01*
X-428571Y-40343571D02*
X-380952Y-40438809D01*
X-380952Y-40438809D02*
X-380952Y-40534047D01*
X-380952Y-40534047D02*
X-857142Y-40629285D01*
X0Y-40915000D02*
X95238Y-40962619D01*
X95238Y-40962619D02*
X285714Y-40962619D01*
X285714Y-40962619D02*
X380952Y-40915000D01*
X380952Y-40915000D02*
X428571Y-40819761D01*
X428571Y-40819761D02*
X428571Y-40772142D01*
X428571Y-40772142D02*
X380952Y-40676904D01*
X380952Y-40676904D02*
X285714Y-40629285D01*
X285714Y-40629285D02*
X142857Y-40629285D01*
X142857Y-40629285D02*
X47619Y-40581666D01*
X47619Y-40581666D02*
X0Y-40486428D01*
X0Y-40486428D02*
X0Y-40438809D01*
X0Y-40438809D02*
X47619Y-40343571D01*
X47619Y-40343571D02*
X142857Y-40295952D01*
X142857Y-40295952D02*
X285714Y-40295952D01*
X285714Y-40295952D02*
X380952Y-40343571D01*
X1238095Y-40915000D02*
X1142857Y-40962619D01*
X1142857Y-40962619D02*
X952381Y-40962619D01*
X952381Y-40962619D02*
X857143Y-40915000D01*
X857143Y-40915000D02*
X809524Y-40819761D01*
X809524Y-40819761D02*
X809524Y-40438809D01*
X809524Y-40438809D02*
X857143Y-40343571D01*
X857143Y-40343571D02*
X952381Y-40295952D01*
X952381Y-40295952D02*
X1142857Y-40295952D01*
X1142857Y-40295952D02*
X1238095Y-40343571D01*
X1238095Y-40343571D02*
X1285714Y-40438809D01*
X1285714Y-40438809D02*
X1285714Y-40534047D01*
X1285714Y-40534047D02*
X809524Y-40629285D01*
X1571429Y-40295952D02*
X1952381Y-40295952D01*
X1714286Y-39962619D02*
X1714286Y-40819761D01*
X1714286Y-40819761D02*
X1761905Y-40915000D01*
X1761905Y-40915000D02*
X1857143Y-40962619D01*
X1857143Y-40962619D02*
X1952381Y-40962619D01*
D11*
X1542857Y-1277571D02*
X1542857Y-1763285D01*
X1542857Y-1763285D02*
X1571428Y-1820428D01*
X1571428Y-1820428D02*
X1600000Y-1849000D01*
X1600000Y-1849000D02*
X1657142Y-1877571D01*
X1657142Y-1877571D02*
X1771428Y-1877571D01*
X1771428Y-1877571D02*
X1828571Y-1849000D01*
X1828571Y-1849000D02*
X1857142Y-1820428D01*
X1857142Y-1820428D02*
X1885714Y-1763285D01*
X1885714Y-1763285D02*
X1885714Y-1277571D01*
X2142856Y-1334714D02*
X2171428Y-1306142D01*
X2171428Y-1306142D02*
X2228571Y-1277571D01*
X2228571Y-1277571D02*
X2371428Y-1277571D01*
X2371428Y-1277571D02*
X2428571Y-1306142D01*
X2428571Y-1306142D02*
X2457142Y-1334714D01*
X2457142Y-1334714D02*
X2485713Y-1391857D01*
X2485713Y-1391857D02*
X2485713Y-1449000D01*
X2485713Y-1449000D02*
X2457142Y-1534714D01*
X2457142Y-1534714D02*
X2114285Y-1877571D01*
X2114285Y-1877571D02*
X2485713Y-1877571D01*
D12*
X4571428Y953714D02*
X4609524Y991809D01*
X4609524Y991809D02*
X4685714Y1029904D01*
X4685714Y1029904D02*
X4876190Y1029904D01*
X4876190Y1029904D02*
X4952381Y991809D01*
X4952381Y991809D02*
X4990476Y953714D01*
X4990476Y953714D02*
X5028571Y877523D01*
X5028571Y877523D02*
X5028571Y801333D01*
X5028571Y801333D02*
X4990476Y687047D01*
X4990476Y687047D02*
X4533333Y229904D01*
X4533333Y229904D02*
X5028571Y229904D01*
X-5352381Y6929904D02*
X-5809524Y6929904D01*
X-5580952Y6929904D02*
X-5580952Y7729904D01*
X-5580952Y7729904D02*
X-5657143Y7615619D01*
X-5657143Y7615619D02*
X-5733333Y7539428D01*
X-5733333Y7539428D02*
X-5809524Y7501333D01*
X-5085714Y7729904D02*
X-4590476Y7729904D01*
X-4590476Y7729904D02*
X-4857142Y7425142D01*
X-4857142Y7425142D02*
X-4742857Y7425142D01*
X-4742857Y7425142D02*
X-4666666Y7387047D01*
X-4666666Y7387047D02*
X-4628571Y7348952D01*
X-4628571Y7348952D02*
X-4590476Y7272761D01*
X-4590476Y7272761D02*
X-4590476Y7082285D01*
X-4590476Y7082285D02*
X-4628571Y7006095D01*
X-4628571Y7006095D02*
X-4666666Y6968000D01*
X-4666666Y6968000D02*
X-4742857Y6929904D01*
X-4742857Y6929904D02*
X-4971428Y6929904D01*
X-4971428Y6929904D02*
X-5047619Y6968000D01*
X-5047619Y6968000D02*
X-5085714Y7006095D01*
X5028571Y6929904D02*
X4571428Y6929904D01*
X4800000Y6929904D02*
X4800000Y7729904D01*
X4800000Y7729904D02*
X4723809Y7615619D01*
X4723809Y7615619D02*
X4647619Y7539428D01*
X4647619Y7539428D02*
X4571428Y7501333D01*
X-5352381Y229904D02*
X-5809524Y229904D01*
X-5580952Y229904D02*
X-5580952Y1029904D01*
X-5580952Y1029904D02*
X-5657143Y915619D01*
X-5657143Y915619D02*
X-5733333Y839428D01*
X-5733333Y839428D02*
X-5809524Y801333D01*
X-4666666Y763238D02*
X-4666666Y229904D01*
X-4857142Y1068000D02*
X-5047619Y496571D01*
X-5047619Y496571D02*
X-4552380Y496571D01*
D11*
X1527571Y-27599999D02*
X1527571Y-27885713D01*
X1527571Y-27885713D02*
X927571Y-27885713D01*
X984714Y-27428571D02*
X956142Y-27399999D01*
X956142Y-27399999D02*
X927571Y-27342857D01*
X927571Y-27342857D02*
X927571Y-27199999D01*
X927571Y-27199999D02*
X956142Y-27142857D01*
X956142Y-27142857D02*
X984714Y-27114285D01*
X984714Y-27114285D02*
X1041857Y-27085714D01*
X1041857Y-27085714D02*
X1099000Y-27085714D01*
X1099000Y-27085714D02*
X1184714Y-27114285D01*
X1184714Y-27114285D02*
X1527571Y-27457142D01*
X1527571Y-27457142D02*
X1527571Y-27085714D01*
X2920428Y-27599999D02*
X2949000Y-27628571D01*
X2949000Y-27628571D02*
X2977571Y-27714285D01*
X2977571Y-27714285D02*
X2977571Y-27771428D01*
X2977571Y-27771428D02*
X2949000Y-27857142D01*
X2949000Y-27857142D02*
X2891857Y-27914285D01*
X2891857Y-27914285D02*
X2834714Y-27942856D01*
X2834714Y-27942856D02*
X2720428Y-27971428D01*
X2720428Y-27971428D02*
X2634714Y-27971428D01*
X2634714Y-27971428D02*
X2520428Y-27942856D01*
X2520428Y-27942856D02*
X2463285Y-27914285D01*
X2463285Y-27914285D02*
X2406142Y-27857142D01*
X2406142Y-27857142D02*
X2377571Y-27771428D01*
X2377571Y-27771428D02*
X2377571Y-27714285D01*
X2377571Y-27714285D02*
X2406142Y-27628571D01*
X2406142Y-27628571D02*
X2434714Y-27599999D01*
X2377571Y-27399999D02*
X2377571Y-26999999D01*
X2377571Y-26999999D02*
X2977571Y-27257142D01*
X277571Y-11899999D02*
X-8142Y-12099999D01*
X277571Y-12242856D02*
X-322428Y-12242856D01*
X-322428Y-12242856D02*
X-322428Y-12014285D01*
X-322428Y-12014285D02*
X-293857Y-11957142D01*
X-293857Y-11957142D02*
X-265285Y-11928571D01*
X-265285Y-11928571D02*
X-208142Y-11899999D01*
X-208142Y-11899999D02*
X-122428Y-11899999D01*
X-122428Y-11899999D02*
X-65285Y-11928571D01*
X-65285Y-11928571D02*
X-36714Y-11957142D01*
X-36714Y-11957142D02*
X-8142Y-12014285D01*
X-8142Y-12014285D02*
X-8142Y-12242856D01*
X-122428Y-11385714D02*
X277571Y-11385714D01*
X-351000Y-11528571D02*
X77571Y-11671428D01*
X77571Y-11671428D02*
X77571Y-11299999D01*
X9000000Y12036714D02*
X8800000Y12036714D01*
X8800000Y11722428D02*
X8800000Y12322428D01*
X8800000Y12322428D02*
X9085714Y12322428D01*
X9628571Y11722428D02*
X9285714Y11722428D01*
X9457143Y11722428D02*
X9457143Y12322428D01*
X9457143Y12322428D02*
X9400000Y12236714D01*
X9400000Y12236714D02*
X9342857Y12179571D01*
X9342857Y12179571D02*
X9285714Y12151000D01*
X-799999Y-8920428D02*
X-828571Y-8949000D01*
X-828571Y-8949000D02*
X-914285Y-8977571D01*
X-914285Y-8977571D02*
X-971428Y-8977571D01*
X-971428Y-8977571D02*
X-1057142Y-8949000D01*
X-1057142Y-8949000D02*
X-1114285Y-8891857D01*
X-1114285Y-8891857D02*
X-1142856Y-8834714D01*
X-1142856Y-8834714D02*
X-1171428Y-8720428D01*
X-1171428Y-8720428D02*
X-1171428Y-8634714D01*
X-1171428Y-8634714D02*
X-1142856Y-8520428D01*
X-1142856Y-8520428D02*
X-1114285Y-8463285D01*
X-1114285Y-8463285D02*
X-1057142Y-8406142D01*
X-1057142Y-8406142D02*
X-971428Y-8377571D01*
X-971428Y-8377571D02*
X-914285Y-8377571D01*
X-914285Y-8377571D02*
X-828571Y-8406142D01*
X-828571Y-8406142D02*
X-799999Y-8434714D01*
X-571428Y-8434714D02*
X-542856Y-8406142D01*
X-542856Y-8406142D02*
X-485714Y-8377571D01*
X-485714Y-8377571D02*
X-342856Y-8377571D01*
X-342856Y-8377571D02*
X-285714Y-8406142D01*
X-285714Y-8406142D02*
X-257142Y-8434714D01*
X-257142Y-8434714D02*
X-228571Y-8491857D01*
X-228571Y-8491857D02*
X-228571Y-8549000D01*
X-228571Y-8549000D02*
X-257142Y-8634714D01*
X-257142Y-8634714D02*
X-599999Y-8977571D01*
X-599999Y-8977571D02*
X-228571Y-8977571D01*
X-4379571Y-11899999D02*
X-4351000Y-11928571D01*
X-4351000Y-11928571D02*
X-4322428Y-12014285D01*
X-4322428Y-12014285D02*
X-4322428Y-12071428D01*
X-4322428Y-12071428D02*
X-4351000Y-12157142D01*
X-4351000Y-12157142D02*
X-4408142Y-12214285D01*
X-4408142Y-12214285D02*
X-4465285Y-12242856D01*
X-4465285Y-12242856D02*
X-4579571Y-12271428D01*
X-4579571Y-12271428D02*
X-4665285Y-12271428D01*
X-4665285Y-12271428D02*
X-4779571Y-12242856D01*
X-4779571Y-12242856D02*
X-4836714Y-12214285D01*
X-4836714Y-12214285D02*
X-4893857Y-12157142D01*
X-4893857Y-12157142D02*
X-4922428Y-12071428D01*
X-4922428Y-12071428D02*
X-4922428Y-12014285D01*
X-4922428Y-12014285D02*
X-4893857Y-11928571D01*
X-4893857Y-11928571D02*
X-4865285Y-11899999D01*
X-4722428Y-11385714D02*
X-4322428Y-11385714D01*
X-4951000Y-11528571D02*
X-4522428Y-11671428D01*
X-4522428Y-11671428D02*
X-4522428Y-11299999D01*
X7850000Y12972428D02*
X7650000Y13258142D01*
X7507143Y12972428D02*
X7507143Y13572428D01*
X7507143Y13572428D02*
X7735714Y13572428D01*
X7735714Y13572428D02*
X7792857Y13543857D01*
X7792857Y13543857D02*
X7821428Y13515285D01*
X7821428Y13515285D02*
X7850000Y13458142D01*
X7850000Y13458142D02*
X7850000Y13372428D01*
X7850000Y13372428D02*
X7821428Y13315285D01*
X7821428Y13315285D02*
X7792857Y13286714D01*
X7792857Y13286714D02*
X7735714Y13258142D01*
X7735714Y13258142D02*
X7507143Y13258142D01*
X8078571Y13515285D02*
X8107143Y13543857D01*
X8107143Y13543857D02*
X8164286Y13572428D01*
X8164286Y13572428D02*
X8307143Y13572428D01*
X8307143Y13572428D02*
X8364286Y13543857D01*
X8364286Y13543857D02*
X8392857Y13515285D01*
X8392857Y13515285D02*
X8421428Y13458142D01*
X8421428Y13458142D02*
X8421428Y13401000D01*
X8421428Y13401000D02*
X8392857Y13315285D01*
X8392857Y13315285D02*
X8050000Y12972428D01*
X8050000Y12972428D02*
X8421428Y12972428D01*
X4720428Y-27599999D02*
X4749000Y-27628571D01*
X4749000Y-27628571D02*
X4777571Y-27714285D01*
X4777571Y-27714285D02*
X4777571Y-27771428D01*
X4777571Y-27771428D02*
X4749000Y-27857142D01*
X4749000Y-27857142D02*
X4691857Y-27914285D01*
X4691857Y-27914285D02*
X4634714Y-27942856D01*
X4634714Y-27942856D02*
X4520428Y-27971428D01*
X4520428Y-27971428D02*
X4434714Y-27971428D01*
X4434714Y-27971428D02*
X4320428Y-27942856D01*
X4320428Y-27942856D02*
X4263285Y-27914285D01*
X4263285Y-27914285D02*
X4206142Y-27857142D01*
X4206142Y-27857142D02*
X4177571Y-27771428D01*
X4177571Y-27771428D02*
X4177571Y-27714285D01*
X4177571Y-27714285D02*
X4206142Y-27628571D01*
X4206142Y-27628571D02*
X4234714Y-27599999D01*
X4177571Y-27057142D02*
X4177571Y-27342856D01*
X4177571Y-27342856D02*
X4463285Y-27371428D01*
X4463285Y-27371428D02*
X4434714Y-27342856D01*
X4434714Y-27342856D02*
X4406142Y-27285714D01*
X4406142Y-27285714D02*
X4406142Y-27142856D01*
X4406142Y-27142856D02*
X4434714Y-27085714D01*
X4434714Y-27085714D02*
X4463285Y-27057142D01*
X4463285Y-27057142D02*
X4520428Y-27028571D01*
X4520428Y-27028571D02*
X4663285Y-27028571D01*
X4663285Y-27028571D02*
X4720428Y-27057142D01*
X4720428Y-27057142D02*
X4749000Y-27085714D01*
X4749000Y-27085714D02*
X4777571Y-27142856D01*
X4777571Y-27142856D02*
X4777571Y-27285714D01*
X4777571Y-27285714D02*
X4749000Y-27342856D01*
X4749000Y-27342856D02*
X4720428Y-27371428D01*
X9100000Y10222428D02*
X8814286Y10222428D01*
X8814286Y10222428D02*
X8814286Y10822428D01*
X9614285Y10222428D02*
X9271428Y10222428D01*
X9442857Y10222428D02*
X9442857Y10822428D01*
X9442857Y10822428D02*
X9385714Y10736714D01*
X9385714Y10736714D02*
X9328571Y10679571D01*
X9328571Y10679571D02*
X9271428Y10651000D01*
X-3379571Y-11899999D02*
X-3351000Y-11928571D01*
X-3351000Y-11928571D02*
X-3322428Y-12014285D01*
X-3322428Y-12014285D02*
X-3322428Y-12071428D01*
X-3322428Y-12071428D02*
X-3351000Y-12157142D01*
X-3351000Y-12157142D02*
X-3408142Y-12214285D01*
X-3408142Y-12214285D02*
X-3465285Y-12242856D01*
X-3465285Y-12242856D02*
X-3579571Y-12271428D01*
X-3579571Y-12271428D02*
X-3665285Y-12271428D01*
X-3665285Y-12271428D02*
X-3779571Y-12242856D01*
X-3779571Y-12242856D02*
X-3836714Y-12214285D01*
X-3836714Y-12214285D02*
X-3893857Y-12157142D01*
X-3893857Y-12157142D02*
X-3922428Y-12071428D01*
X-3922428Y-12071428D02*
X-3922428Y-12014285D01*
X-3922428Y-12014285D02*
X-3893857Y-11928571D01*
X-3893857Y-11928571D02*
X-3865285Y-11899999D01*
X-3922428Y-11699999D02*
X-3922428Y-11328571D01*
X-3922428Y-11328571D02*
X-3693857Y-11528571D01*
X-3693857Y-11528571D02*
X-3693857Y-11442856D01*
X-3693857Y-11442856D02*
X-3665285Y-11385714D01*
X-3665285Y-11385714D02*
X-3636714Y-11357142D01*
X-3636714Y-11357142D02*
X-3579571Y-11328571D01*
X-3579571Y-11328571D02*
X-3436714Y-11328571D01*
X-3436714Y-11328571D02*
X-3379571Y-11357142D01*
X-3379571Y-11357142D02*
X-3351000Y-11385714D01*
X-3351000Y-11385714D02*
X-3322428Y-11442856D01*
X-3322428Y-11442856D02*
X-3322428Y-11614285D01*
X-3322428Y-11614285D02*
X-3351000Y-11671428D01*
X-3351000Y-11671428D02*
X-3379571Y-11699999D01*
X-9399999Y11722428D02*
X-9599999Y12008142D01*
X-9742856Y11722428D02*
X-9742856Y12322428D01*
X-9742856Y12322428D02*
X-9514285Y12322428D01*
X-9514285Y12322428D02*
X-9457142Y12293857D01*
X-9457142Y12293857D02*
X-9428571Y12265285D01*
X-9428571Y12265285D02*
X-9399999Y12208142D01*
X-9399999Y12208142D02*
X-9399999Y12122428D01*
X-9399999Y12122428D02*
X-9428571Y12065285D01*
X-9428571Y12065285D02*
X-9457142Y12036714D01*
X-9457142Y12036714D02*
X-9514285Y12008142D01*
X-9514285Y12008142D02*
X-9742856Y12008142D01*
X-9199999Y12322428D02*
X-8828571Y12322428D01*
X-8828571Y12322428D02*
X-9028571Y12093857D01*
X-9028571Y12093857D02*
X-8942856Y12093857D01*
X-8942856Y12093857D02*
X-8885714Y12065285D01*
X-8885714Y12065285D02*
X-8857142Y12036714D01*
X-8857142Y12036714D02*
X-8828571Y11979571D01*
X-8828571Y11979571D02*
X-8828571Y11836714D01*
X-8828571Y11836714D02*
X-8857142Y11779571D01*
X-8857142Y11779571D02*
X-8885714Y11751000D01*
X-8885714Y11751000D02*
X-8942856Y11722428D01*
X-8942856Y11722428D02*
X-9114285Y11722428D01*
X-9114285Y11722428D02*
X-9171428Y11751000D01*
X-9171428Y11751000D02*
X-9199999Y11779571D01*
X4600000Y-8920428D02*
X4571428Y-8949000D01*
X4571428Y-8949000D02*
X4485714Y-8977571D01*
X4485714Y-8977571D02*
X4428571Y-8977571D01*
X4428571Y-8977571D02*
X4342857Y-8949000D01*
X4342857Y-8949000D02*
X4285714Y-8891857D01*
X4285714Y-8891857D02*
X4257143Y-8834714D01*
X4257143Y-8834714D02*
X4228571Y-8720428D01*
X4228571Y-8720428D02*
X4228571Y-8634714D01*
X4228571Y-8634714D02*
X4257143Y-8520428D01*
X4257143Y-8520428D02*
X4285714Y-8463285D01*
X4285714Y-8463285D02*
X4342857Y-8406142D01*
X4342857Y-8406142D02*
X4428571Y-8377571D01*
X4428571Y-8377571D02*
X4485714Y-8377571D01*
X4485714Y-8377571D02*
X4571428Y-8406142D01*
X4571428Y-8406142D02*
X4600000Y-8434714D01*
X5171428Y-8977571D02*
X4828571Y-8977571D01*
X5000000Y-8977571D02*
X5000000Y-8377571D01*
X5000000Y-8377571D02*
X4942857Y-8463285D01*
X4942857Y-8463285D02*
X4885714Y-8520428D01*
X4885714Y-8520428D02*
X4828571Y-8549000D01*
X-8099999Y12972428D02*
X-8299999Y13258142D01*
X-8442856Y12972428D02*
X-8442856Y13572428D01*
X-8442856Y13572428D02*
X-8214285Y13572428D01*
X-8214285Y13572428D02*
X-8157142Y13543857D01*
X-8157142Y13543857D02*
X-8128571Y13515285D01*
X-8128571Y13515285D02*
X-8099999Y13458142D01*
X-8099999Y13458142D02*
X-8099999Y13372428D01*
X-8099999Y13372428D02*
X-8128571Y13315285D01*
X-8128571Y13315285D02*
X-8157142Y13286714D01*
X-8157142Y13286714D02*
X-8214285Y13258142D01*
X-8214285Y13258142D02*
X-8442856Y13258142D01*
X-7528571Y12972428D02*
X-7871428Y12972428D01*
X-7699999Y12972428D02*
X-7699999Y13572428D01*
X-7699999Y13572428D02*
X-7757142Y13486714D01*
X-7757142Y13486714D02*
X-7814285Y13429571D01*
X-7814285Y13429571D02*
X-7871428Y13401000D01*
X-3457142Y-2902571D02*
X-3457142Y-3388285D01*
X-3457142Y-3388285D02*
X-3428571Y-3445428D01*
X-3428571Y-3445428D02*
X-3400000Y-3474000D01*
X-3400000Y-3474000D02*
X-3342857Y-3502571D01*
X-3342857Y-3502571D02*
X-3228571Y-3502571D01*
X-3228571Y-3502571D02*
X-3171428Y-3474000D01*
X-3171428Y-3474000D02*
X-3142857Y-3445428D01*
X-3142857Y-3445428D02*
X-3114285Y-3388285D01*
X-3114285Y-3388285D02*
X-3114285Y-2902571D01*
X-2885714Y-2902571D02*
X-2514286Y-2902571D01*
X-2514286Y-2902571D02*
X-2714286Y-3131142D01*
X-2714286Y-3131142D02*
X-2628571Y-3131142D01*
X-2628571Y-3131142D02*
X-2571429Y-3159714D01*
X-2571429Y-3159714D02*
X-2542857Y-3188285D01*
X-2542857Y-3188285D02*
X-2514286Y-3245428D01*
X-2514286Y-3245428D02*
X-2514286Y-3388285D01*
X-2514286Y-3388285D02*
X-2542857Y-3445428D01*
X-2542857Y-3445428D02*
X-2571429Y-3474000D01*
X-2571429Y-3474000D02*
X-2628571Y-3502571D01*
X-2628571Y-3502571D02*
X-2800000Y-3502571D01*
X-2800000Y-3502571D02*
X-2857143Y-3474000D01*
X-2857143Y-3474000D02*
X-2885714Y-3445428D01*
X-457142Y-15877571D02*
X-457142Y-16363285D01*
X-457142Y-16363285D02*
X-428571Y-16420428D01*
X-428571Y-16420428D02*
X-400000Y-16449000D01*
X-400000Y-16449000D02*
X-342857Y-16477571D01*
X-342857Y-16477571D02*
X-228571Y-16477571D01*
X-228571Y-16477571D02*
X-171428Y-16449000D01*
X-171428Y-16449000D02*
X-142857Y-16420428D01*
X-142857Y-16420428D02*
X-114285Y-16363285D01*
X-114285Y-16363285D02*
X-114285Y-15877571D01*
X485713Y-16477571D02*
X142856Y-16477571D01*
X314285Y-16477571D02*
X314285Y-15877571D01*
X314285Y-15877571D02*
X257142Y-15963285D01*
X257142Y-15963285D02*
X199999Y-16020428D01*
X199999Y-16020428D02*
X142856Y-16049000D01*
X-9742856Y10222428D02*
X-9742856Y10822428D01*
X-9742856Y10822428D02*
X-9599999Y10822428D01*
X-9599999Y10822428D02*
X-9514285Y10793857D01*
X-9514285Y10793857D02*
X-9457142Y10736714D01*
X-9457142Y10736714D02*
X-9428571Y10679571D01*
X-9428571Y10679571D02*
X-9399999Y10565285D01*
X-9399999Y10565285D02*
X-9399999Y10479571D01*
X-9399999Y10479571D02*
X-9428571Y10365285D01*
X-9428571Y10365285D02*
X-9457142Y10308142D01*
X-9457142Y10308142D02*
X-9514285Y10251000D01*
X-9514285Y10251000D02*
X-9599999Y10222428D01*
X-9599999Y10222428D02*
X-9742856Y10222428D01*
X-8828571Y10222428D02*
X-9171428Y10222428D01*
X-8999999Y10222428D02*
X-8999999Y10822428D01*
X-8999999Y10822428D02*
X-9057142Y10736714D01*
X-9057142Y10736714D02*
X-9114285Y10679571D01*
X-9114285Y10679571D02*
X-9171428Y10651000D01*
X-1579571Y-11899999D02*
X-1551000Y-11928571D01*
X-1551000Y-11928571D02*
X-1522428Y-12014285D01*
X-1522428Y-12014285D02*
X-1522428Y-12071428D01*
X-1522428Y-12071428D02*
X-1551000Y-12157142D01*
X-1551000Y-12157142D02*
X-1608142Y-12214285D01*
X-1608142Y-12214285D02*
X-1665285Y-12242856D01*
X-1665285Y-12242856D02*
X-1779571Y-12271428D01*
X-1779571Y-12271428D02*
X-1865285Y-12271428D01*
X-1865285Y-12271428D02*
X-1979571Y-12242856D01*
X-1979571Y-12242856D02*
X-2036714Y-12214285D01*
X-2036714Y-12214285D02*
X-2093857Y-12157142D01*
X-2093857Y-12157142D02*
X-2122428Y-12071428D01*
X-2122428Y-12071428D02*
X-2122428Y-12014285D01*
X-2122428Y-12014285D02*
X-2093857Y-11928571D01*
X-2093857Y-11928571D02*
X-2065285Y-11899999D01*
X-2122428Y-11385714D02*
X-2122428Y-11499999D01*
X-2122428Y-11499999D02*
X-2093857Y-11557142D01*
X-2093857Y-11557142D02*
X-2065285Y-11585714D01*
X-2065285Y-11585714D02*
X-1979571Y-11642856D01*
X-1979571Y-11642856D02*
X-1865285Y-11671428D01*
X-1865285Y-11671428D02*
X-1636714Y-11671428D01*
X-1636714Y-11671428D02*
X-1579571Y-11642856D01*
X-1579571Y-11642856D02*
X-1551000Y-11614285D01*
X-1551000Y-11614285D02*
X-1522428Y-11557142D01*
X-1522428Y-11557142D02*
X-1522428Y-11442856D01*
X-1522428Y-11442856D02*
X-1551000Y-11385714D01*
X-1551000Y-11385714D02*
X-1579571Y-11357142D01*
X-1579571Y-11357142D02*
X-1636714Y-11328571D01*
X-1636714Y-11328571D02*
X-1779571Y-11328571D01*
X-1779571Y-11328571D02*
X-1836714Y-11357142D01*
X-1836714Y-11357142D02*
X-1865285Y-11385714D01*
X-1865285Y-11385714D02*
X-1893857Y-11442856D01*
X-1893857Y-11442856D02*
X-1893857Y-11557142D01*
X-1893857Y-11557142D02*
X-1865285Y-11614285D01*
X-1865285Y-11614285D02*
X-1836714Y-11642856D01*
X-1836714Y-11642856D02*
X-1779571Y-11671428D01*
D12*
X4300000Y-3700000D02*
X4300000Y-6300000D01*
X4100000Y-3700000D02*
X4300000Y-3700000D01*
X-100000Y-3700000D02*
X-300000Y-3700000D01*
X-300000Y-3700000D02*
X-300000Y-6300000D01*
X4300000Y-6300000D02*
X4100000Y-6300000D01*
X-300000Y-6300000D02*
X-100000Y-6300000D01*
X-7800000Y6700000D02*
X-7800000Y1300000D01*
X-7800000Y1300000D02*
X-4400000Y1300000D01*
X-4400000Y6700000D02*
X-7800000Y6700000D01*
X7800000Y6700000D02*
X4400000Y6700000D01*
X7800000Y6700000D02*
X7800000Y1300000D01*
X7800000Y1300000D02*
X4400000Y1300000D01*
X2200000Y-28150000D02*
X300000Y-28150000D01*
X2200000Y-28150000D02*
X2200000Y-31850000D01*
X300000Y-28150000D02*
X300000Y-31850000D01*
X1250000Y-29900000D02*
X1450000Y-30100000D01*
X1450000Y-30100000D02*
X1050000Y-30100000D01*
X1050000Y-30100000D02*
X1250000Y-29900000D01*
X2200000Y-31850000D02*
X300000Y-31850000D01*
X3200000Y-28150000D02*
X3200000Y-30150000D01*
X2200000Y-28150000D02*
X3200000Y-28150000D01*
X2200000Y-28150000D02*
X2200000Y-30150000D01*
X2200000Y-30150000D02*
X3200000Y-30150000D01*
X-500000Y-14500000D02*
X-500000Y-12500000D01*
X500000Y-14500000D02*
X-500000Y-14500000D01*
X500000Y-14500000D02*
X500000Y-12500000D01*
X500000Y-12500000D02*
X-500000Y-12500000D01*
X8650000Y11250000D02*
X8650000Y12750000D01*
X8650000Y11250000D02*
X5350000Y11250000D01*
X8650000Y12750000D02*
X5350000Y12750000D01*
X7100000Y12000000D02*
X6900000Y11800000D01*
X6900000Y11800000D02*
X6900000Y12200000D01*
X6900000Y12200000D02*
X7100000Y12000000D01*
X5350000Y11250000D02*
X5350000Y12750000D01*
X-2200000Y-39700000D02*
X-2200000Y-39000000D01*
X2200000Y-39700000D02*
X-2200000Y-39700000D01*
X2200000Y-39000000D02*
X2200000Y-39700000D01*
X-2200000Y-37000000D02*
X-2200000Y-36300000D01*
X-2200000Y-36300000D02*
X2200000Y-36300000D01*
X2200000Y-36300000D02*
X2200000Y-37000000D01*
X0Y-8200000D02*
X2000000Y-8200000D01*
X0Y-9200000D02*
X0Y-8200000D01*
X0Y-9200000D02*
X2000000Y-9200000D01*
X2000000Y-9200000D02*
X2000000Y-8200000D01*
X-5100000Y-14500000D02*
X-5100000Y-12500000D01*
X-4100000Y-14500000D02*
X-5100000Y-14500000D01*
X-4100000Y-14500000D02*
X-4100000Y-12500000D01*
X-4100000Y-12500000D02*
X-5100000Y-12500000D01*
X5350000Y13750000D02*
X7350000Y13750000D01*
X5350000Y12750000D02*
X5350000Y13750000D01*
X5350000Y12750000D02*
X7350000Y12750000D01*
X7350000Y12750000D02*
X7350000Y13750000D01*
X5000000Y-28150000D02*
X5000000Y-30150000D01*
X4000000Y-28150000D02*
X5000000Y-28150000D01*
X4000000Y-28150000D02*
X4000000Y-30150000D01*
X4000000Y-30150000D02*
X5000000Y-30150000D01*
X5350000Y11250000D02*
X5350000Y9750000D01*
X5350000Y11250000D02*
X8650000Y11250000D01*
X5350000Y9750000D02*
X8650000Y9750000D01*
X6900000Y10500000D02*
X7100000Y10700000D01*
X7100000Y10700000D02*
X7100000Y10300000D01*
X7100000Y10300000D02*
X6900000Y10500000D01*
X8650000Y11250000D02*
X8650000Y9750000D01*
X-4100000Y-14500000D02*
X-4100000Y-12500000D01*
X-3100000Y-14500000D02*
X-4100000Y-14500000D01*
X-3100000Y-14500000D02*
X-3100000Y-12500000D01*
X-3100000Y-12500000D02*
X-4100000Y-12500000D01*
X-5350000Y11250000D02*
X-5350000Y12750000D01*
X-5350000Y11250000D02*
X-8650000Y11250000D01*
X-5350000Y12750000D02*
X-8650000Y12750000D01*
X-6900000Y12000000D02*
X-7100000Y11800000D01*
X-7100000Y11800000D02*
X-7100000Y12200000D01*
X-7100000Y12200000D02*
X-6900000Y12000000D01*
X-8650000Y11250000D02*
X-8650000Y12750000D01*
X4000000Y-9200000D02*
X2000000Y-9200000D01*
X4000000Y-8200000D02*
X4000000Y-9200000D01*
X4000000Y-8200000D02*
X2000000Y-8200000D01*
X2000000Y-8200000D02*
X2000000Y-9200000D01*
X-5350000Y12750000D02*
X-7350000Y12750000D01*
X-5350000Y13750000D02*
X-5350000Y12750000D01*
X-5350000Y13750000D02*
X-7350000Y13750000D01*
X-7350000Y13750000D02*
X-7350000Y12750000D01*
X-3700000Y-4200000D02*
X-3600000Y-4200000D01*
X-3700000Y-4700000D02*
X-3700000Y-4200000D01*
X-3700000Y-5800000D02*
X-3700000Y-5300000D01*
X-3500000Y-5800000D02*
X-3700000Y-5800000D01*
X-2400000Y-4200000D02*
X-2300000Y-4200000D01*
X-2300000Y-4200000D02*
X-2300000Y-4700000D01*
X-2300000Y-5300000D02*
X-2300000Y-5800000D01*
X-2300000Y-5800000D02*
X-2400000Y-5800000D01*
X-3610000Y-24610000D02*
X-3610000Y-24135000D01*
X-3135000Y-17390000D02*
X-3610000Y-17390000D01*
X-3135000Y-24610000D02*
X-3610000Y-24610000D01*
X3135000Y-17390000D02*
X3610000Y-17390000D01*
X3135000Y-24610000D02*
X3610000Y-24610000D01*
X3610000Y-17390000D02*
X3610000Y-17865000D01*
X3610000Y-24610000D02*
X3610000Y-24135000D01*
D13*
X-3800000Y-17700000D02*
G75*
G03*
X-3800000Y-17700000I-100000J0D01*
G01*
D12*
X-5350000Y9750000D02*
X-5350000Y11250000D01*
X-5350000Y9750000D02*
X-8650000Y9750000D01*
X-5350000Y11250000D02*
X-8650000Y11250000D01*
X-6900000Y10500000D02*
X-7100000Y10300000D01*
X-7100000Y10300000D02*
X-7100000Y10700000D01*
X-7100000Y10700000D02*
X-6900000Y10500000D01*
X-8650000Y9750000D02*
X-8650000Y11250000D01*
X-2300000Y-14500000D02*
X-2300000Y-12500000D01*
X-1300000Y-14500000D02*
X-2300000Y-14500000D01*
X-1300000Y-14500000D02*
X-1300000Y-12500000D01*
X-1300000Y-12500000D02*
X-2300000Y-12500000D01*
M02*
