G04 #@! TF.GenerationSoftware,KiCad,Pcbnew,7.0.1*
G04 #@! TF.CreationDate,2023-03-20T20:29:13+09:00*
G04 #@! TF.ProjectId,EB-STM32U575CIU6Q,45422d53-544d-4333-9255-353735434955,V1.0*
G04 #@! TF.SameCoordinates,Original*
G04 #@! TF.FileFunction,Soldermask,Top*
G04 #@! TF.FilePolarity,Negative*
%FSLAX46Y46*%
G04 Gerber Fmt 4.6, Leading zero omitted, Abs format (unit mm)*
G04 Created by KiCad (PCBNEW 7.0.1) date 2023-03-20 20:29:13*
%MOMM*%
%LPD*%
G01*
G04 APERTURE LIST*
G04 Aperture macros list*
%AMRoundRect*
0 Rectangle with rounded corners*
0 $1 Rounding radius*
0 $2 $3 $4 $5 $6 $7 $8 $9 X,Y pos of 4 corners*
0 Add a 4 corners polygon primitive as box body*
4,1,4,$2,$3,$4,$5,$6,$7,$8,$9,$2,$3,0*
0 Add four circle primitives for the rounded corners*
1,1,$1+$1,$2,$3*
1,1,$1+$1,$4,$5*
1,1,$1+$1,$6,$7*
1,1,$1+$1,$8,$9*
0 Add four rect primitives between the rounded corners*
20,1,$1+$1,$2,$3,$4,$5,0*
20,1,$1+$1,$4,$5,$6,$7,0*
20,1,$1+$1,$6,$7,$8,$9,0*
20,1,$1+$1,$8,$9,$2,$3,0*%
%AMFreePoly0*
4,1,13,0.900000,0.500000,2.600000,0.500000,2.600000,-0.500000,0.900000,-0.500000,0.400000,-1.000000,-0.400000,-1.000000,-0.400000,-0.500000,-2.600000,-0.500000,-2.600000,0.500000,-0.400000,0.500000,-0.400000,1.000000,0.400000,1.000000,0.900000,0.500000,0.900000,0.500000,$1*%
G04 Aperture macros list end*
%ADD10O,1.000000X1.800000*%
%ADD11C,0.650000*%
%ADD12O,1.000000X2.100000*%
%ADD13R,0.450000X0.940000*%
%ADD14R,0.150000X1.140000*%
%ADD15R,1.600000X1.600000*%
%ADD16C,1.600000*%
%ADD17R,0.700000X1.500000*%
%ADD18FreePoly0,270.000000*%
%ADD19R,0.650000X2.770000*%
%ADD20RoundRect,0.250000X-0.350000X0.250000X-0.350000X-0.250000X0.350000X-0.250000X0.350000X0.250000X0*%
%ADD21RoundRect,0.150000X-0.150000X0.150000X-0.150000X-0.150000X0.150000X-0.150000X0.150000X0.150000X0*%
%ADD22RoundRect,0.150000X0.150000X-0.150000X0.150000X0.150000X-0.150000X0.150000X-0.150000X-0.150000X0*%
%ADD23RoundRect,0.200000X0.250000X0.200000X-0.250000X0.200000X-0.250000X-0.200000X0.250000X-0.200000X0*%
%ADD24C,0.750000*%
%ADD25R,1.000000X1.600000*%
%ADD26RoundRect,0.150000X-0.150000X-0.150000X0.150000X-0.150000X0.150000X0.150000X-0.150000X0.150000X0*%
%ADD27RoundRect,0.200000X-0.250000X-0.200000X0.250000X-0.200000X0.250000X0.200000X-0.250000X0.200000X0*%
%ADD28RoundRect,0.150000X0.150000X0.150000X-0.150000X0.150000X-0.150000X-0.150000X0.150000X-0.150000X0*%
%ADD29R,0.200000X0.400000*%
%ADD30R,0.400000X0.200000*%
%ADD31R,0.800000X0.150000*%
%ADD32R,0.150000X0.800000*%
%ADD33R,5.300000X5.300000*%
G04 APERTURE END LIST*
D10*
X4320000Y15400000D03*
D11*
X2890000Y11720000D03*
X-2890000Y11720000D03*
D12*
X-4320000Y11220000D03*
D10*
X-4320000Y15400000D03*
D13*
X3200000Y10550000D03*
X2400000Y10550000D03*
D14*
X1250000Y10650000D03*
X250000Y10650000D03*
X-250000Y10650000D03*
X-1250000Y10650000D03*
D13*
X-2400000Y10550000D03*
X-3200000Y10550000D03*
X-3200000Y10550000D03*
X-2400000Y10550000D03*
D14*
X-1750000Y10650000D03*
X-750000Y10650000D03*
X750000Y10650000D03*
X1750000Y10650000D03*
D13*
X2400000Y10550000D03*
X3200000Y10550000D03*
D12*
X4320000Y11220000D03*
D15*
X8890000Y0D03*
D16*
X8890000Y-2540000D03*
X8890000Y-5080000D03*
X8890000Y-7620000D03*
X8890000Y-10160000D03*
X8890000Y-12700000D03*
X8890000Y-15240000D03*
X8890000Y-17780000D03*
X8890000Y-20320000D03*
X8890000Y-22860000D03*
X8890000Y-25400000D03*
X8890000Y-27940000D03*
X8890000Y-30480000D03*
X8890000Y-33020000D03*
X8890000Y-35560000D03*
X8890000Y-38100000D03*
X8890000Y-40640000D03*
D17*
X3500000Y-3150000D03*
D18*
X2000000Y-5000000D03*
D17*
X500000Y-3150000D03*
X500000Y-6850000D03*
X3500000Y-6850000D03*
D19*
X3810000Y5778000D03*
X3810000Y2222000D03*
X2540000Y5778000D03*
X2540000Y2222000D03*
X1270000Y5778000D03*
X1270000Y2222000D03*
X0Y5778000D03*
X0Y2222000D03*
X-1270000Y5778000D03*
X-1270000Y2222000D03*
X-2540000Y5778000D03*
X-2540000Y2222000D03*
X-3810000Y5778000D03*
X-3810000Y2222000D03*
D20*
X1250000Y-29000000D03*
X1250000Y-31000000D03*
D21*
X2700000Y-28650000D03*
X2700000Y-29650000D03*
D22*
X0Y-14000000D03*
X0Y-13000000D03*
D23*
X7850000Y12000000D03*
X6150000Y12000000D03*
D24*
X0Y-38900000D03*
X0Y-37100000D03*
D25*
X-2200000Y-38000000D03*
X2200000Y-38000000D03*
D26*
X500000Y-8700000D03*
X1500000Y-8700000D03*
D22*
X-4600000Y-14000000D03*
X-4600000Y-13000000D03*
D26*
X5850000Y13250000D03*
X6850000Y13250000D03*
D21*
X4500000Y-28650000D03*
X4500000Y-29650000D03*
D27*
X6150000Y10500000D03*
X7850000Y10500000D03*
D22*
X-3600000Y-14000000D03*
X-3600000Y-13000000D03*
D15*
X-8890000Y0D03*
D16*
X-8890000Y-2540000D03*
X-8890000Y-5080000D03*
X-8890000Y-7620000D03*
X-8890000Y-10160000D03*
X-8890000Y-12700000D03*
X-8890000Y-15240000D03*
X-8890000Y-17780000D03*
X-8890000Y-20320000D03*
X-8890000Y-22860000D03*
X-8890000Y-25400000D03*
X-8890000Y-27940000D03*
X-8890000Y-30480000D03*
X-8890000Y-33020000D03*
X-8890000Y-35560000D03*
X-8890000Y-38100000D03*
X-8890000Y-40640000D03*
D23*
X-6150000Y12000000D03*
X-7850000Y12000000D03*
D28*
X3500000Y-8700000D03*
X2500000Y-8700000D03*
X-5850000Y13250000D03*
X-6850000Y13250000D03*
D29*
X-3275000Y-4350000D03*
X-2725000Y-4350000D03*
D30*
X-2500000Y-5000000D03*
D29*
X-2725000Y-5650000D03*
X-3275000Y-5650000D03*
D30*
X-3500000Y-5000000D03*
D31*
X-3450000Y-18250000D03*
X-3450000Y-18750000D03*
X-3450000Y-19250000D03*
X-3450000Y-19750000D03*
X-3450000Y-20250000D03*
X-3450000Y-20750000D03*
X-3450000Y-21250000D03*
X-3450000Y-21750000D03*
X-3450000Y-22250000D03*
X-3450000Y-22750000D03*
X-3450000Y-23250000D03*
X-3450000Y-23750000D03*
D32*
X-2750000Y-24450000D03*
X-2250000Y-24450000D03*
X-1750000Y-24450000D03*
X-1250000Y-24450000D03*
X-750000Y-24450000D03*
X-250000Y-24450000D03*
X250000Y-24450000D03*
X750000Y-24450000D03*
X1250000Y-24450000D03*
X1750000Y-24450000D03*
X2250000Y-24450000D03*
X2750000Y-24450000D03*
D31*
X3450000Y-23750000D03*
X3450000Y-23250000D03*
X3450000Y-22750000D03*
X3450000Y-22250000D03*
X3450000Y-21750000D03*
X3450000Y-21250000D03*
X3450000Y-20750000D03*
X3450000Y-20250000D03*
X3450000Y-19750000D03*
X3450000Y-19250000D03*
X3450000Y-18750000D03*
X3450000Y-18250000D03*
D32*
X2750000Y-17550000D03*
X2250000Y-17550000D03*
X1750000Y-17550000D03*
X1250000Y-17550000D03*
X750000Y-17550000D03*
X250000Y-17550000D03*
X-250000Y-17550000D03*
X-750000Y-17550000D03*
X-1250000Y-17550000D03*
X-1750000Y-17550000D03*
X-2250000Y-17550000D03*
D33*
X0Y-21000000D03*
D32*
X-2750000Y-17550000D03*
D23*
X-6150000Y10500000D03*
X-7850000Y10500000D03*
D22*
X-1800000Y-14000000D03*
X-1800000Y-13000000D03*
M02*
