G04 #@! TF.GenerationSoftware,KiCad,Pcbnew,7.0.1*
G04 #@! TF.CreationDate,2023-03-20T20:29:13+09:00*
G04 #@! TF.ProjectId,EB-STM32U575CIU6Q,45422d53-544d-4333-9255-353735434955,V1.0*
G04 #@! TF.SameCoordinates,Original*
G04 #@! TF.FileFunction,Soldermask,Bot*
G04 #@! TF.FilePolarity,Negative*
%FSLAX46Y46*%
G04 Gerber Fmt 4.6, Leading zero omitted, Abs format (unit mm)*
G04 Created by KiCad (PCBNEW 7.0.1) date 2023-03-20 20:29:13*
%MOMM*%
%LPD*%
G01*
G04 APERTURE LIST*
%ADD10O,1.000000X1.800000*%
%ADD11C,0.650000*%
%ADD12O,1.000000X2.100000*%
%ADD13R,1.600000X1.600000*%
%ADD14C,1.600000*%
%ADD15C,0.750000*%
G04 APERTURE END LIST*
D10*
X4320000Y15400000D03*
D11*
X2890000Y11720000D03*
X-2890000Y11720000D03*
D12*
X-4320000Y11220000D03*
D10*
X-4320000Y15400000D03*
D12*
X4320000Y11220000D03*
D13*
X8890000Y0D03*
D14*
X8890000Y-2540000D03*
X8890000Y-5080000D03*
X8890000Y-7620000D03*
X8890000Y-10160000D03*
X8890000Y-12700000D03*
X8890000Y-15240000D03*
X8890000Y-17780000D03*
X8890000Y-20320000D03*
X8890000Y-22860000D03*
X8890000Y-25400000D03*
X8890000Y-27940000D03*
X8890000Y-30480000D03*
X8890000Y-33020000D03*
X8890000Y-35560000D03*
X8890000Y-38100000D03*
X8890000Y-40640000D03*
D15*
X0Y-38900000D03*
X0Y-37100000D03*
D13*
X-8890000Y0D03*
D14*
X-8890000Y-2540000D03*
X-8890000Y-5080000D03*
X-8890000Y-7620000D03*
X-8890000Y-10160000D03*
X-8890000Y-12700000D03*
X-8890000Y-15240000D03*
X-8890000Y-17780000D03*
X-8890000Y-20320000D03*
X-8890000Y-22860000D03*
X-8890000Y-25400000D03*
X-8890000Y-27940000D03*
X-8890000Y-30480000D03*
X-8890000Y-33020000D03*
X-8890000Y-35560000D03*
X-8890000Y-38100000D03*
X-8890000Y-40640000D03*
M02*
